<svg xmlns="http://www.w3.org/2000/svg" xmlns:xlink="http://www.w3.org/1999/xlink" width="3212pt" height="936" viewBox="0 0 3211.5 702"><g id="graph0" class="graph" transform="scale(1 1) rotate(0) translate(4 698)"><title>godep</title><polygon fill="#fff" stroke="transparent" points="-4 4 -4 -698 3207.5 -698 3207.5 4 -4 4"/><g id="node1" class="node"><title>bufio</title><g id="a_node1"><a target="_blank" xlink:href="https://godoc.org/bufio" xlink:title="bufio"><path fill="#98fb98" stroke="#98fb98" d="M828,-36C828,-36 798,-36 798,-36 792,-36 786,-30 786,-24 786,-24 786,-12 786,-12 786,-6 792,0 798,0 798,0 828,0 828,0 834,0 840,-6 840,-12 840,-12 840,-24 840,-24 840,-30 834,-36 828,-36"/><text x="813" y="-14.3" fill="#000" font-family="Times,serif" font-size="14" text-anchor="middle">bufio</text></a></g></g><g id="node2" class="node"><title>bytes</title><g id="a_node2"><a target="_blank" xlink:href="https://godoc.org/bytes" xlink:title="bytes"><path fill="#98fb98" stroke="#98fb98" d="M683,-36C683,-36 653,-36 653,-36 647,-36 641,-30 641,-24 641,-24 641,-12 641,-12 641,-6 647,0 653,0 653,0 683,0 683,0 689,0 695,-6 695,-12 695,-12 695,-24 695,-24 695,-30 689,-36 683,-36"/><text x="668" y="-14.3" fill="#000" font-family="Times,serif" font-size="14" text-anchor="middle">bytes</text></a></g></g><g id="node3" class="node"><title>context</title><g id="a_node3"><a target="_blank" xlink:href="https://godoc.org/context" xlink:title="context"><path fill="#98fb98" stroke="#98fb98" d="M2528,-506C2528,-506 2496,-506 2496,-506 2490,-506 2484,-500 2484,-494 2484,-494 2484,-482 2484,-482 2484,-476 2490,-470 2496,-470 2496,-470 2528,-470 2528,-470 2534,-470 2540,-476 2540,-482 2540,-482 2540,-494 2540,-494 2540,-500 2534,-506 2528,-506"/><text x="2512" y="-484.3" fill="#000" font-family="Times,serif" font-size="14" text-anchor="middle">context</text></a></g></g><g id="node4" class="node"><title>encoding/base64</title><g id="a_node4"><a target="_blank" xlink:href="https://godoc.org/encoding/base64" xlink:title="encoding/base64"><path fill="#98fb98" stroke="#98fb98" d="M257.5,-318C257.5,-318 174.5,-318 174.5,-318 168.5,-318 162.5,-312 162.5,-306 162.5,-306 162.5,-294 162.5,-294 162.5,-288 168.5,-282 174.5,-282 174.5,-282 257.5,-282 257.5,-282 263.5,-282 269.5,-288 269.5,-294 269.5,-294 269.5,-306 269.5,-306 269.5,-312 263.5,-318 257.5,-318"/><text x="216" y="-296.3" fill="#000" font-family="Times,serif" font-size="14" text-anchor="middle">encoding/base64</text></a></g></g><g id="node5" class="node"><title>encoding/json</title><g id="a_node5"><a target="_blank" xlink:href="https://godoc.org/encoding/json" xlink:title="encoding/json"><path fill="#98fb98" stroke="#98fb98" d="M228,-36C228,-36 160,-36 160,-36 154,-36 148,-30 148,-24 148,-24 148,-12 148,-12 148,-6 154,0 160,0 160,0 228,0 228,0 234,0 240,-6 240,-12 240,-12 240,-24 240,-24 240,-30 234,-36 228,-36"/><text x="194" y="-14.3" fill="#000" font-family="Times,serif" font-size="14" text-anchor="middle">encoding/json</text></a></g></g><g id="node6" class="node"><title>errors</title><g id="a_node6"><a target="_blank" xlink:href="https://godoc.org/errors" xlink:title="errors"><path fill="#98fb98" stroke="#98fb98" d="M2236,-318C2236,-318 2206,-318 2206,-318 2200,-318 2194,-312 2194,-306 2194,-306 2194,-294 2194,-294 2194,-288 2200,-282 2206,-282 2206,-282 2236,-282 2236,-282 2242,-282 2248,-288 2248,-294 2248,-294 2248,-306 2248,-306 2248,-312 2242,-318 2236,-318"/><text x="2221" y="-296.3" fill="#000" font-family="Times,serif" font-size="14" text-anchor="middle">errors</text></a></g></g><g id="node7" class="node"><title>fmt</title><g id="a_node7"><a target="_blank" xlink:href="https://godoc.org/fmt" xlink:title="fmt"><path fill="#98fb98" stroke="#98fb98" d="M1986,-36C1986,-36 1956,-36 1956,-36 1950,-36 1944,-30 1944,-24 1944,-24 1944,-12 1944,-12 1944,-6 1950,0 1956,0 1956,0 1986,0 1986,0 1992,0 1998,-6 1998,-12 1998,-12 1998,-24 1998,-24 1998,-30 1992,-36 1986,-36"/><text x="1971" y="-14.3" fill="#000" font-family="Times,serif" font-size="14" text-anchor="middle">fmt</text></a></g></g><g id="node8" class="node"><title>github.com/docker/cli/cli/config</title><g id="a_node8"><a target="_blank" xlink:href="https://godoc.org/github.com/docker/cli/cli/config" xlink:title="github.com/docker/cli/cli/config"><path fill="#afeeee" stroke="#afeeee" d="M1254,-506C1254,-506 1086,-506 1086,-506 1080,-506 1074,-500 1074,-494 1074,-494 1074,-482 1074,-482 1074,-476 1080,-470 1086,-470 1086,-470 1254,-470 1254,-470 1260,-470 1266,-476 1266,-482 1266,-482 1266,-494 1266,-494 1266,-500 1260,-506 1254,-506"/><text x="1170" y="-484.3" fill="#000" font-family="Times,serif" font-size="14" text-anchor="middle">github.com/docker/cli/cli/config</text></a></g></g><g id="edge1" class="edge"><title>github.com/docker/cli/cli/config-&gt;fmt</title><path fill="none" stroke="#000" d="M1266.2661,-477.1263C1373.9923,-463.8751 1540.9149,-439.7838 1598,-412 1777.8388,-324.4709 1915.961,-111.0793 1957.8445,-40.8353"/><polygon fill="#000" stroke="#000" points="1959.419 -41.612 1960.464 -36.418 1956.408 -39.827 1959.419 -41.612"/></g><g id="node9" class="node"><title>github.com/docker/cli/cli/config/configfile</title><g id="a_node9"><a target="_blank" xlink:href="https://godoc.org/github.com/docker/cli/cli/config/configfile" xlink:title="github.com/docker/cli/cli/config/configfile"><path fill="#afeeee" stroke="#afeeee" d="M1084,-412C1084,-412 860,-412 860,-412 854,-412 848,-406 848,-400 848,-400 848,-388 848,-388 848,-382 854,-376 860,-376 860,-376 1084,-376 1084,-376 1090,-376 1096,-382 1096,-388 1096,-388 1096,-400 1096,-400 1096,-406 1090,-412 1084,-412"/><text x="972" y="-390.3" fill="#000" font-family="Times,serif" font-size="14" text-anchor="middle">github.com/docker/cli/cli/config/configfile</text></a></g></g><g id="edge2" class="edge"><title>github.com/docker/cli/cli/config-&gt;github.com/docker/cli/cli/config/configfile</title><path fill="none" stroke="#000" d="M1131.8236,-469.8759C1098.2688,-453.9458 1049.4939,-430.79 1014.6636,-414.2545"/><polygon fill="#000" stroke="#000" points="1015.327 -412.632 1010.059 -412.068 1013.826 -415.794 1015.327 -412.632"/></g><g id="node10" class="node"><title>github.com/docker/cli/cli/config/credentials</title><g id="a_node10"><a target="_blank" xlink:href="https://godoc.org/github.com/docker/cli/cli/config/credentials" xlink:title="github.com/docker/cli/cli/config/credentials"><path fill="#afeeee" stroke="#afeeee" d="M925,-318C925,-318 695,-318 695,-318 689,-318 683,-312 683,-306 683,-306 683,-294 683,-294 683,-288 689,-282 695,-282 695,-282 925,-282 925,-282 931,-282 937,-288 937,-294 937,-294 937,-306 937,-306 937,-312 931,-318 925,-318"/><text x="810" y="-296.3" fill="#000" font-family="Times,serif" font-size="14" text-anchor="middle">github.com/docker/cli/cli/config/credentials</text></a></g></g><g id="edge3" class="edge"><title>github.com/docker/cli/cli/config-&gt;github.com/docker/cli/cli/config/credentials</title><path fill="none" stroke="#000" d="M1073.825,-477.9324C986.3917,-466.7805 866.1268,-445.7713 833,-412 810.0302,-388.5833 807.1309,-348.7312 807.962,-323.4184"/><polygon fill="#000" stroke="#000" points="809.718 -323.321 808.19 -318.249 806.221 -323.167 809.718 -323.321"/></g><g id="node11" class="node"><title>github.com/docker/cli/cli/config/types</title><g id="a_node11"><a target="_blank" xlink:href="https://godoc.org/github.com/docker/cli/cli/config/types" xlink:title="github.com/docker/cli/cli/config/types"><path fill="#afeeee" stroke="#afeeee" d="M1247,-224C1247,-224 1047,-224 1047,-224 1041,-224 1035,-218 1035,-212 1035,-212 1035,-200 1035,-200 1035,-194 1041,-188 1047,-188 1047,-188 1247,-188 1247,-188 1253,-188 1259,-194 1259,-200 1259,-200 1259,-212 1259,-212 1259,-218 1253,-224 1247,-224"/><text x="1147" y="-202.3" fill="#000" font-family="Times,serif" font-size="14" text-anchor="middle">github.com/docker/cli/cli/config/types</text></a></g></g><g id="edge4" class="edge"><title>github.com/docker/cli/cli/config-&gt;github.com/docker/cli/cli/config/types</title><path fill="none" stroke="#000" d="M1168.5263,-469.9306C1164.5114,-420.7051 1153.3823,-284.252 1148.9034,-229.3379"/><polygon fill="#000" stroke="#000" points="1150.642 -229.125 1148.491 -224.284 1147.154 -229.41 1150.642 -229.125"/></g><g id="node12" class="node"><title>github.com/docker/docker/pkg/homedir</title><g id="a_node12"><a target="_blank" xlink:href="https://godoc.org/github.com/docker/docker/pkg/homedir" xlink:title="github.com/docker/docker/pkg/homedir"><path fill="#afeeee" stroke="#afeeee" d="M1464.5,-412C1464.5,-412 1255.5,-412 1255.5,-412 1249.5,-412 1243.5,-406 1243.5,-400 1243.5,-400 1243.5,-388 1243.5,-388 1243.5,-382 1249.5,-376 1255.5,-376 1255.5,-376 1464.5,-376 1464.5,-376 1470.5,-376 1476.5,-382 1476.5,-388 1476.5,-388 1476.5,-400 1476.5,-400 1476.5,-406 1470.5,-412 1464.5,-412"/><text x="1360" y="-390.3" fill="#000" font-family="Times,serif" font-size="14" text-anchor="middle">github.com/docker/docker/pkg/homedir</text></a></g></g><g id="edge5" class="edge"><title>github.com/docker/cli/cli/config-&gt;github.com/docker/docker/pkg/homedir</title><path fill="none" stroke="#000" d="M1206.6339,-469.8759C1238.7015,-454.0108 1285.2554,-430.9789 1318.6502,-414.4573"/><polygon fill="#000" stroke="#000" points="1319.773 -415.854 1323.479 -412.068 1318.221 -412.717 1319.773 -415.854"/></g><g id="node13" class="node"><title>github.com/pkg/errors</title><g id="a_node13"><a target="_blank" xlink:href="https://godoc.org/github.com/pkg/errors" xlink:title="github.com/pkg/errors"><path fill="#eee8aa" stroke="#eee8aa" d="M1709,-130C1709,-130 1595,-130 1595,-130 1589,-130 1583,-124 1583,-118 1583,-118 1583,-106 1583,-106 1583,-100 1589,-94 1595,-94 1595,-94 1709,-94 1709,-94 1715,-94 1721,-100 1721,-106 1721,-106 1721,-118 1721,-118 1721,-124 1715,-130 1709,-130"/><text x="1652" y="-108.3" fill="#000" font-family="Times,serif" font-size="14" text-anchor="middle">github.com/pkg/errors</text></a></g></g><g id="edge6" class="edge"><title>github.com/docker/cli/cli/config-&gt;github.com/pkg/errors</title><path fill="none" stroke="#000" d="M1266.0328,-479.5512C1343.3902,-470.1597 1453.5964,-450.8479 1543,-412 1576.0277,-397.6487 1658.4991,-350.008 1675,-318 1706.1362,-257.6029 1678.8276,-174.2295 1662.3518,-134.633"/><polygon fill="#000" stroke="#000" points="1663.962 -133.948 1660.401 -130.026 1660.739 -135.312 1663.962 -133.948"/></g><g id="node14" class="node"><title>io</title><g id="a_node14"><a target="_blank" xlink:href="https://godoc.org/io" xlink:title="io"><path fill="#98fb98" stroke="#98fb98" d="M1034,-36C1034,-36 1004,-36 1004,-36 998,-36 992,-30 992,-24 992,-24 992,-12 992,-12 992,-6 998,0 1004,0 1004,0 1034,0 1034,0 1040,0 1046,-6 1046,-12 1046,-12 1046,-24 1046,-24 1046,-30 1040,-36 1034,-36"/><text x="1019" y="-14.3" fill="#000" font-family="Times,serif" font-size="14" text-anchor="middle">io</text></a></g></g><g id="edge7" class="edge"><title>github.com/docker/cli/cli/config-&gt;io</title><path fill="none" stroke="#000" d="M1073.6611,-480.3086C896.553,-463.8416 530.9911,-418.2188 462,-318 390.1382,-213.6112 368.5322,-243.7443 637,-94 697.5302,-60.2378 906.0734,-31.813 986.764,-21.8273"/><polygon fill="#000" stroke="#000" points="987.142 -23.544 991.891 -21.196 986.715 -20.07 987.142 -23.544"/></g><g id="node15" class="node"><title>os</title><g id="a_node15"><a target="_blank" xlink:href="https://godoc.org/os" xlink:title="os"><path fill="#98fb98" stroke="#98fb98" d="M533,-36C533,-36 503,-36 503,-36 497,-36 491,-30 491,-24 491,-24 491,-12 491,-12 491,-6 497,0 503,0 503,0 533,0 533,0 539,0 545,-6 545,-12 545,-12 545,-24 545,-24 545,-30 539,-36 533,-36"/><text x="518" y="-14.3" fill="#000" font-family="Times,serif" font-size="14" text-anchor="middle">os</text></a></g></g><g id="edge8" class="edge"><title>github.com/docker/cli/cli/config-&gt;os</title><path fill="none" stroke="#000" d="M1073.7305,-482.9164C922.5411,-473.8315 637.0683,-451.9178 544,-412 438.4175,-366.7147 384.0948,-298.6494 415,-188 431.3471,-129.4728 473.9404,-71.0262 498.9374,-40.242"/><polygon fill="#000" stroke="#000" points="500.38 -41.242 502.194 -36.265 497.672 -39.025 500.38 -41.242"/></g><g id="node16" class="node"><title>path/filepath</title><g id="a_node16"><a target="_blank" xlink:href="https://godoc.org/path/filepath" xlink:title="path/filepath"><path fill="#98fb98" stroke="#98fb98" d="M1393.5,-318C1393.5,-318 1332.5,-318 1332.5,-318 1326.5,-318 1320.5,-312 1320.5,-306 1320.5,-306 1320.5,-294 1320.5,-294 1320.5,-288 1326.5,-282 1332.5,-282 1332.5,-282 1393.5,-282 1393.5,-282 1399.5,-282 1405.5,-288 1405.5,-294 1405.5,-294 1405.5,-306 1405.5,-306 1405.5,-312 1399.5,-318 1393.5,-318"/><text x="1363" y="-296.3" fill="#000" font-family="Times,serif" font-size="14" text-anchor="middle">path/filepath</text></a></g></g><g id="edge9" class="edge"><title>github.com/docker/cli/cli/config-&gt;path/filepath</title><path fill="none" stroke="#000" d="M1175.9422,-469.7514C1184.489,-445.8127 1202.2302,-403.615 1229,-376 1253.2845,-350.9488 1287.6155,-331.6936 1315.4478,-318.8326"/><polygon fill="#000" stroke="#000" points="1316.384 -320.329 1320.21 -316.665 1314.934 -317.144 1316.384 -320.329"/></g><g id="node17" class="node"><title>strings</title><g id="a_node17"><a target="_blank" xlink:href="https://godoc.org/strings" xlink:title="strings"><path fill="#98fb98" stroke="#98fb98" d="M1495,-36C1495,-36 1465,-36 1465,-36 1459,-36 1453,-30 1453,-24 1453,-24 1453,-12 1453,-12 1453,-6 1459,0 1465,0 1465,0 1495,0 1495,0 1501,0 1507,-6 1507,-12 1507,-12 1507,-24 1507,-24 1507,-30 1501,-36 1495,-36"/><text x="1480" y="-14.3" fill="#000" font-family="Times,serif" font-size="14" text-anchor="middle">strings</text></a></g></g><g id="edge10" class="edge"><title>github.com/docker/cli/cli/config-&gt;strings</title><path fill="none" stroke="#000" d="M1266.0054,-475.5835C1331.5889,-464.6593 1419.2633,-445.1657 1491,-412 1515.5289,-400.6597 1518.034,-391.7406 1540,-376 1576.5806,-349.7866 1602.2009,-357.9084 1623,-318 1650.6687,-264.9104 1539.5129,-100.7592 1496.4199,-40.4902"/><polygon fill="#000" stroke="#000" points="1497.774 -39.376 1493.438 -36.333 1494.93 -41.416 1497.774 -39.376"/></g><g id="edge11" class="edge"><title>github.com/docker/cli/cli/config/configfile-&gt;encoding/base64</title><path fill="none" stroke="#000" d="M847.5855,-378.5305C682.4277,-357.995 397.3991,-322.5549 274.8279,-307.3146"/><polygon fill="#000" stroke="#000" points="275.003 -305.573 269.825 -306.693 274.571 -309.046 275.003 -305.573"/></g><g id="edge12" class="edge"><title>github.com/docker/cli/cli/config/configfile-&gt;encoding/json</title><path fill="none" stroke="#000" d="M847.9491,-382.0576C774.096,-371.6871 679.9,-352.6298 602,-318 591.2618,-313.2264 313.7424,-107.0739 222.6591,-39.3267"/><polygon fill="#000" stroke="#000" points="223.521 -37.787 218.464 -36.207 221.432 -40.595 223.521 -37.787"/></g><g id="edge13" class="edge"><title>github.com/docker/cli/cli/config/configfile-&gt;fmt</title><path fill="none" stroke="#000" d="M1052.3679,-375.9376C1106.1723,-362.6836 1178.0334,-342.7178 1239,-318 1270.3273,-305.2989 1274.7303,-294.8422 1306,-282 1390.4286,-247.326 1415.6459,-250.4524 1503,-224 1637.5405,-183.2588 1678.2773,-190.8469 1805,-130 1857.9384,-104.5812 1913.2882,-63.9447 1944.8193,-39.2393"/><polygon fill="#000" stroke="#000" points="1946.074 -40.479 1948.92 -36.011 1943.909 -37.729 1946.074 -40.479"/></g><g id="edge14" class="edge"><title>github.com/docker/cli/cli/config/configfile-&gt;github.com/docker/cli/cli/config/credentials</title><path fill="none" stroke="#000" d="M940.7648,-375.8759C913.535,-360.0759 874.0548,-337.1676 845.6068,-320.6607"/><polygon fill="#000" stroke="#000" points="846.342 -319.064 841.139 -318.068 844.586 -322.092 846.342 -319.064"/></g><g id="edge15" class="edge"><title>github.com/docker/cli/cli/config/configfile-&gt;github.com/docker/cli/cli/config/types</title><path fill="none" stroke="#000" d="M975.6658,-375.8069C981.259,-351.9297 993.9088,-309.7997 1018,-282 1039.1613,-257.5811 1070.1883,-238.957 1096.5102,-226.2577"/><polygon fill="#000" stroke="#000" points="1097.262 -227.838 1101.028 -224.113 1095.761 -224.676 1097.262 -227.838"/></g><g id="edge16" class="edge"><title>github.com/docker/cli/cli/config/configfile-&gt;github.com/pkg/errors</title><path fill="none" stroke="#000" d="M1026.0251,-375.9647C1068.3593,-361.4247 1128.5104,-339.8634 1180,-318 1213.6651,-303.7052 1219.9709,-295.4052 1254,-282 1335.7517,-249.7952 1361.8945,-257.7994 1443,-224 1507.3434,-197.1859 1578.0071,-156.8428 1618.4792,-132.5995"/><polygon fill="#000" stroke="#000" points="1619.396 -134.09 1622.781 -130.015 1617.594 -131.09 1619.396 -134.09"/></g><g id="edge17" class="edge"><title>github.com/docker/cli/cli/config/configfile-&gt;io</title><path fill="none" stroke="#000" d="M995.2265,-375.9408C1026.1785,-352.399 1083.1956,-310.8353 1136,-282 1194.0319,-250.3101 1236.4794,-279.1199 1273,-224 1337.6707,-126.3937 1133.3242,-52.3646 1051.4109,-27.2658"/><polygon fill="#000" stroke="#000" points="1051.489 -25.461 1046.197 -25.684 1050.473 -28.81 1051.489 -25.461"/></g><g id="edge19" class="edge"><title>github.com/docker/cli/cli/config/configfile-&gt;os</title><path fill="none" stroke="#000" d="M847.6594,-376.8602C790.5991,-365.5592 723.4612,-347.243 668,-318 612.3013,-288.6318 593.7166,-278.3958 562,-224 527.3587,-164.5882 519.8684,-81.2996 518.3325,-41.2744"/><polygon fill="#000" stroke="#000" points="520.077 -41.089 518.16 -36.151 516.579 -41.207 520.077 -41.089"/></g><g id="edge20" class="edge"><title>github.com/docker/cli/cli/config/configfile-&gt;path/filepath</title><path fill="none" stroke="#000" d="M1053.6144,-375.9512C1119.6914,-361.1035 1215.0776,-339.1379 1298,-318 1303.6733,-316.5538 1309.61,-314.9859 1315.4908,-313.399"/><polygon fill="#000" stroke="#000" points="1316.043 -315.062 1320.411 -312.064 1315.127 -311.685 1316.043 -315.062"/></g><g id="edge21" class="edge"><title>github.com/docker/cli/cli/config/configfile-&gt;strings</title><path fill="none" stroke="#000" d="M1015.4995,-375.9692C1047.9599,-361.8316 1092.9141,-340.7881 1130,-318 1152.4184,-304.2246 1154.4863,-295.6191 1177,-282 1229.4026,-250.3002 1253.1077,-260.8843 1302,-224 1374.0841,-169.6198 1437.7085,-81.6836 1465.3568,-40.557"/><polygon fill="#000" stroke="#000" points="1466.911 -41.381 1468.234 -36.252 1464.001 -39.436 1466.911 -41.381"/></g><g id="node18" class="node"><title>io/ioutil</title><g id="a_node18"><a target="_blank" xlink:href="https://godoc.org/io/ioutil" xlink:title="io/ioutil"><path fill="#98fb98" stroke="#98fb98" d="M523.5,-318C523.5,-318 488.5,-318 488.5,-318 482.5,-318 476.5,-312 476.5,-306 476.5,-306 476.5,-294 476.5,-294 476.5,-288 482.5,-282 488.5,-282 488.5,-282 523.5,-282 523.5,-282 529.5,-282 535.5,-288 535.5,-294 535.5,-294 535.5,-306 535.5,-306 535.5,-312 529.5,-318 523.5,-318"/><text x="506" y="-296.3" fill="#000" font-family="Times,serif" font-size="14" text-anchor="middle">io/ioutil</text></a></g></g><g id="edge18" class="edge"><title>github.com/docker/cli/cli/config/configfile-&gt;io/ioutil</title><path fill="none" stroke="#000" d="M847.7343,-376.2349C764.9442,-363.1676 654.1093,-343.2996 558,-318 552.298,-316.499 546.323,-314.6756 540.538,-312.7723"/><polygon fill="#000" stroke="#000" points="541.03 -311.092 535.733 -311.16 539.917 -314.41 541.03 -311.092"/></g><g id="edge22" class="edge"><title>github.com/docker/cli/cli/config/credentials-&gt;github.com/docker/cli/cli/config/types</title><path fill="none" stroke="#000" d="M874.5782,-281.9871C932.6702,-265.7834 1017.7991,-242.0382 1077.3897,-225.4165"/><polygon fill="#000" stroke="#000" points="1078.008 -227.061 1082.354 -224.032 1077.067 -223.69 1078.008 -227.061"/></g><g id="edge26" class="edge"><title>github.com/docker/cli/cli/config/credentials-&gt;strings</title><path fill="none" stroke="#000" d="M849.5573,-281.9865C881.0458,-267.2893 925.9846,-245.5089 964,-224 989.752,-209.4297 993.3131,-200.7777 1020,-188 1093.5234,-152.797 1117.356,-157.7604 1194,-130 1287.0119,-96.3112 1395.41,-52.6325 1448.0494,-31.1342"/><polygon fill="#000" stroke="#000" points="1449.001 -32.636 1452.967 -29.124 1447.677 -29.396 1449.001 -32.636"/></g><g id="node19" class="node"><title>github.com/docker/docker-credential-helpers/client</title><g id="a_node19"><a target="_blank" xlink:href="https://godoc.org/github.com/docker/docker-credential-helpers/client" xlink:title="github.com/docker/docker-credential-helpers/client"><path fill="#eee8aa" stroke="#eee8aa" d="M875.5,-224C875.5,-224 604.5,-224 604.5,-224 598.5,-224 592.5,-218 592.5,-212 592.5,-212 592.5,-200 592.5,-200 592.5,-194 598.5,-188 604.5,-188 604.5,-188 875.5,-188 875.5,-188 881.5,-188 887.5,-194 887.5,-200 887.5,-200 887.5,-212 887.5,-212 887.5,-218 881.5,-224 875.5,-224"/><text x="740" y="-202.3" fill="#000" font-family="Times,serif" font-size="14" text-anchor="middle">github.com/docker/docker-credential-helpers/client</text></a></g></g><g id="edge23" class="edge"><title>github.com/docker/cli/cli/config/credentials-&gt;github.com/docker/docker-credential-helpers/client</title><path fill="none" stroke="#000" d="M796.5033,-281.8759C785.0763,-266.531 768.6564,-244.4815 756.4596,-228.1029"/><polygon fill="#000" stroke="#000" points="757.845 -227.034 753.455 -224.069 755.038 -229.124 757.845 -227.034"/></g><g id="node20" class="node"><title>github.com/docker/docker-credential-helpers/credentials</title><g id="a_node20"><a target="_blank" xlink:href="https://godoc.org/github.com/docker/docker-credential-helpers/credentials" xlink:title="github.com/docker/docker-credential-helpers/credentials"><path fill="#eee8aa" stroke="#eee8aa" d="M962.5,-130C962.5,-130 663.5,-130 663.5,-130 657.5,-130 651.5,-124 651.5,-118 651.5,-118 651.5,-106 651.5,-106 651.5,-100 657.5,-94 663.5,-94 663.5,-94 962.5,-94 962.5,-94 968.5,-94 974.5,-100 974.5,-106 974.5,-106 974.5,-118 974.5,-118 974.5,-124 968.5,-130 962.5,-130"/><text x="813" y="-108.3" fill="#000" font-family="Times,serif" font-size="14" text-anchor="middle">github.com/docker/docker-credential-helpers/credentials</text></a></g></g><g id="edge24" class="edge"><title>github.com/docker/cli/cli/config/credentials-&gt;github.com/docker/docker-credential-helpers/credentials</title><path fill="none" stroke="#000" d="M682.8452,-282.0149C610.9277,-266.1393 541.95,-237.5471 578,-188 595.0194,-164.6085 659.3798,-144.7622 716.4501,-131.222"/><polygon fill="#000" stroke="#000" points="717.129 -132.86 721.596 -130.013 716.328 -129.453 717.129 -132.86"/></g><g id="node21" class="node"><title>os/exec</title><g id="a_node21"><a target="_blank" xlink:href="https://godoc.org/os/exec" xlink:title="os/exec"><path fill="#98fb98" stroke="#98fb98" d="M1167.5,-130C1167.5,-130 1134.5,-130 1134.5,-130 1128.5,-130 1122.5,-124 1122.5,-118 1122.5,-118 1122.5,-106 1122.5,-106 1122.5,-100 1128.5,-94 1134.5,-94 1134.5,-94 1167.5,-94 1167.5,-94 1173.5,-94 1179.5,-100 1179.5,-106 1179.5,-106 1179.5,-118 1179.5,-118 1179.5,-124 1173.5,-130 1167.5,-130"/><text x="1151" y="-108.3" fill="#000" font-family="Times,serif" font-size="14" text-anchor="middle">os/exec</text></a></g></g><g id="edge25" class="edge"><title>github.com/docker/cli/cli/config/credentials-&gt;os/exec</title><path fill="none" stroke="#000" d="M832.4024,-281.8347C862.2838,-258.1769 917.424,-216.4865 969,-188 995.6062,-173.3049 1072.8374,-142.4417 1117.6832,-124.9021"/><polygon fill="#000" stroke="#000" points="1118.432 -126.489 1122.452 -123.039 1117.158 -123.228 1118.432 -126.489"/></g><g id="edge42" class="edge"><title>github.com/docker/docker/pkg/homedir-&gt;errors</title><path fill="none" stroke="#000" d="M1476.566,-381.2739C1675.9979,-359.5008 2072.4064,-316.2228 2188.4022,-303.5589"/><polygon fill="#000" stroke="#000" points="2188.931 -305.262 2193.712 -302.979 2188.552 -301.782 2188.931 -305.262"/></g><g id="edge43" class="edge"><title>github.com/docker/docker/pkg/homedir-&gt;os</title><path fill="none" stroke="#000" d="M1381.5627,-375.6808C1404.609,-353.7518 1435.827,-315.753 1420,-282 1364.5306,-163.7047 1314.4518,-144.6161 1194,-94 960.0587,4.3064 877.5008,-69.7646 626,-36 600.3612,-32.5579 571.4609,-27.6887 550.0122,-23.8824"/><polygon fill="#000" stroke="#000" points="550.232 -22.144 545.003 -22.989 549.618 -25.59 550.232 -22.144"/></g><g id="edge45" class="edge"><title>github.com/docker/docker/pkg/homedir-&gt;path/filepath</title><path fill="none" stroke="#000" d="M1360.5784,-375.8759C1361.0557,-360.9211 1361.7362,-339.5983 1362.2544,-323.3629"/><polygon fill="#000" stroke="#000" points="1364.013 -323.122 1362.423 -318.068 1360.515 -323.01 1364.013 -323.122"/></g><g id="edge46" class="edge"><title>github.com/docker/docker/pkg/homedir-&gt;strings</title><path fill="none" stroke="#000" d="M1404.8867,-375.9352C1429.3442,-363.5353 1457.5068,-344.49 1472,-318 1522.168,-226.3051 1498.622,-94.096 1486.0842,-41.1775"/><polygon fill="#000" stroke="#000" points="1487.711 -40.459 1484.835 -36.011 1484.309 -41.282 1487.711 -40.459"/></g><g id="node22" class="node"><title>os/user</title><g id="a_node22"><a target="_blank" xlink:href="https://godoc.org/os/user" xlink:title="os/user"><path fill="#98fb98" stroke="#98fb98" d="M1596.5,-318C1596.5,-318 1565.5,-318 1565.5,-318 1559.5,-318 1553.5,-312 1553.5,-306 1553.5,-306 1553.5,-294 1553.5,-294 1553.5,-288 1559.5,-282 1565.5,-282 1565.5,-282 1596.5,-282 1596.5,-282 1602.5,-282 1608.5,-288 1608.5,-294 1608.5,-294 1608.5,-306 1608.5,-306 1608.5,-312 1602.5,-318 1596.5,-318"/><text x="1581" y="-296.3" fill="#000" font-family="Times,serif" font-size="14" text-anchor="middle">os/user</text></a></g></g><g id="edge44" class="edge"><title>github.com/docker/docker/pkg/homedir-&gt;os/user</title><path fill="none" stroke="#000" d="M1402.3495,-375.9871C1444.9313,-357.8754 1509.6649,-330.3416 1548.4022,-313.8651"/><polygon fill="#000" stroke="#000" points="1549.542 -315.282 1553.458 -311.714 1548.172 -312.061 1549.542 -315.282"/></g><g id="edge81" class="edge"><title>github.com/pkg/errors-&gt;fmt</title><path fill="none" stroke="#000" d="M1713.129,-93.9871C1780.4283,-74.1559 1886.0616,-43.0289 1938.798,-27.489"/><polygon fill="#000" stroke="#000" points="1939.432 -29.127 1943.733 -26.035 1938.443 -25.769 1939.432 -29.127"/></g><g id="edge82" class="edge"><title>github.com/pkg/errors-&gt;io</title><path fill="none" stroke="#000" d="M1582.7503,-101.7165C1446.7594,-81.5219 1149.4983,-37.3789 1051.2413,-22.7878"/><polygon fill="#000" stroke="#000" points="1051.363 -21.037 1046.16 -22.033 1050.849 -24.499 1051.363 -21.037"/></g><g id="edge85" class="edge"><title>github.com/pkg/errors-&gt;strings</title><path fill="none" stroke="#000" d="M1618.8367,-93.8759C1587.9801,-77.0124 1542.3072,-52.0516 1511.8726,-35.4187"/><polygon fill="#000" stroke="#000" points="1512.35 -33.685 1507.123 -32.823 1510.672 -36.757 1512.35 -33.685"/></g><g id="node38" class="node"><title>path</title><g id="a_node38"><a target="_blank" xlink:href="https://godoc.org/path" xlink:title="path"><path fill="#98fb98" stroke="#98fb98" d="M1624,-36C1624,-36 1594,-36 1594,-36 1588,-36 1582,-30 1582,-24 1582,-24 1582,-12 1582,-12 1582,-6 1588,0 1594,0 1594,0 1624,0 1624,0 1630,0 1636,-6 1636,-12 1636,-12 1636,-24 1636,-24 1636,-30 1630,-36 1624,-36"/><text x="1609" y="-14.3" fill="#000" font-family="Times,serif" font-size="14" text-anchor="middle">path</text></a></g></g><g id="edge83" class="edge"><title>github.com/pkg/errors-&gt;path</title><path fill="none" stroke="#000" d="M1643.7092,-93.8759C1636.8087,-78.7911 1626.9443,-57.227 1619.4941,-40.9405"/><polygon fill="#000" stroke="#000" points="1620.937 -39.887 1617.265 -36.069 1617.754 -41.343 1620.937 -39.887"/></g><g id="node39" class="node"><title>runtime</title><g id="a_node39"><a target="_blank" xlink:href="https://godoc.org/runtime" xlink:title="runtime"><path fill="#98fb98" stroke="#98fb98" d="M1712.5,-36C1712.5,-36 1677.5,-36 1677.5,-36 1671.5,-36 1665.5,-30 1665.5,-24 1665.5,-24 1665.5,-12 1665.5,-12 1665.5,-6 1671.5,0 1677.5,0 1677.5,0 1712.5,0 1712.5,0 1718.5,0 1724.5,-6 1724.5,-12 1724.5,-12 1724.5,-24 1724.5,-24 1724.5,-30 1718.5,-36 1712.5,-36"/><text x="1695" y="-14.3" fill="#000" font-family="Times,serif" font-size="14" text-anchor="middle">runtime</text></a></g></g><g id="edge84" class="edge"><title>github.com/pkg/errors-&gt;runtime</title><path fill="none" stroke="#000" d="M1660.2908,-93.8759C1667.1913,-78.7911 1677.0557,-57.227 1684.5059,-40.9405"/><polygon fill="#000" stroke="#000" points="1686.246 -41.343 1686.735 -36.069 1683.063 -39.887 1686.246 -41.343"/></g><g id="edge27" class="edge"><title>github.com/docker/docker-credential-helpers/client-&gt;bytes</title><path fill="none" stroke="#000" d="M699.695,-187.9234C676.7845,-175.2795 650.1209,-155.9875 637,-130 622.3372,-100.9586 638.4454,-64.0663 652.3779,-40.7356"/><polygon fill="#000" stroke="#000" points="654.003 -41.434 655.126 -36.257 651.019 -39.603 654.003 -41.434"/></g><g id="edge28" class="edge"><title>github.com/docker/docker-credential-helpers/client-&gt;encoding/json</title><path fill="none" stroke="#000" d="M687.6472,-187.9738C582.9444,-151.9222 348.9088,-71.3386 245.18,-35.6224"/><polygon fill="#000" stroke="#000" points="245.637 -33.929 240.34 -33.956 244.498 -37.239 245.637 -33.929"/></g><g id="edge29" class="edge"><title>github.com/docker/docker-credential-helpers/client-&gt;fmt</title><path fill="none" stroke="#000" d="M887.6731,-196.1443C1154.8686,-178.1123 1694.8018,-140.6793 1735,-130 1812.5486,-109.3979 1895.6292,-63.7777 1939.5557,-37.56"/><polygon fill="#000" stroke="#000" points="1940.554 -39.002 1943.941 -34.929 1938.753 -36.001 1940.554 -39.002"/></g><g id="edge31" class="edge"><title>github.com/docker/docker-credential-helpers/client-&gt;io</title><path fill="none" stroke="#000" d="M830.8914,-187.9399C892.5304,-173.939 966.7036,-153.0798 989,-130 1012.1116,-106.0764 1017.8863,-66.3718 1019.0761,-41.2273"/><polygon fill="#000" stroke="#000" points="1020.83 -41.155 1019.265 -36.094 1017.332 -41.026 1020.83 -41.155"/></g><g id="edge32" class="edge"><title>github.com/docker/docker-credential-helpers/client-&gt;os</title><path fill="none" stroke="#000" d="M708.4095,-187.7767C684.5249,-173.3822 651.4436,-152.0975 625,-130 591.2531,-101.7995 556.9566,-63.9225 536.5846,-40.2407"/><polygon fill="#000" stroke="#000" points="537.773 -38.938 533.192 -36.278 535.114 -41.214 537.773 -38.938"/></g><g id="edge34" class="edge"><title>github.com/docker/docker-credential-helpers/client-&gt;strings</title><path fill="none" stroke="#000" d="M818.0386,-187.936C875.1239,-174.007 954.12,-153.2389 1022,-130 1061.2022,-116.579 1068.4023,-106.205 1108,-94 1230.8475,-56.1355 1382.4067,-31.8561 1447.6423,-22.4374"/><polygon fill="#000" stroke="#000" points="1448.236 -24.12 1452.937 -21.678 1447.739 -20.656 1448.236 -24.12"/></g><g id="edge30" class="edge"><title>github.com/docker/docker-credential-helpers/client-&gt;github.com/docker/docker-credential-helpers/credentials</title><path fill="none" stroke="#000" d="M754.0751,-187.8759C765.9919,-172.531 783.1154,-150.4815 795.835,-134.1029"/><polygon fill="#000" stroke="#000" points="797.283 -135.091 798.968 -130.069 794.519 -132.944 797.283 -135.091"/></g><g id="edge33" class="edge"><title>github.com/docker/docker-credential-helpers/client-&gt;os/exec</title><path fill="none" stroke="#000" d="M842.8954,-187.9971C915.3721,-174.4141 1014.3608,-154.0405 1100,-130 1105.7206,-128.3941 1111.7294,-126.4823 1117.5343,-124.5139"/><polygon fill="#000" stroke="#000" points="1118.195 -126.137 1122.352 -122.853 1117.054 -122.828 1118.195 -126.137"/></g><g id="edge35" class="edge"><title>github.com/docker/docker-credential-helpers/credentials-&gt;bufio</title><path fill="none" stroke="#000" d="M813,-93.8759C813,-78.9211 813,-57.5983 813,-41.3629"/><polygon fill="#000" stroke="#000" points="814.75 -41.069 813 -36.069 811.25 -41.069 814.75 -41.069"/></g><g id="edge36" class="edge"><title>github.com/docker/docker-credential-helpers/credentials-&gt;bytes</title><path fill="none" stroke="#000" d="M785.0425,-93.8759C760.6149,-78.04 725.1726,-55.0636 699.6971,-38.5485"/><polygon fill="#000" stroke="#000" points="700.527 -37.001 695.38 -35.75 698.624 -39.938 700.527 -37.001"/></g><g id="edge37" class="edge"><title>github.com/docker/docker-credential-helpers/credentials-&gt;encoding/json</title><path fill="none" stroke="#000" d="M694.383,-93.9871C558.8459,-73.4047 343.1816,-40.6544 245.3082,-25.7915"/><polygon fill="#000" stroke="#000" points="245.375 -24.032 240.169 -25.011 244.849 -27.492 245.375 -24.032"/></g><g id="edge38" class="edge"><title>github.com/docker/docker-credential-helpers/credentials-&gt;fmt</title><path fill="none" stroke="#000" d="M974.6242,-98.8803C1251.5666,-76.3996 1800.4046,-31.848 1938.7538,-20.6176"/><polygon fill="#000" stroke="#000" points="1939.044 -22.35 1943.886 -20.201 1938.761 -18.861 1939.044 -22.35"/></g><g id="edge39" class="edge"><title>github.com/docker/docker-credential-helpers/credentials-&gt;io</title><path fill="none" stroke="#000" d="M852.7189,-93.8759C891.8813,-76.0056 950.9711,-49.0423 987.1527,-32.5322"/><polygon fill="#000" stroke="#000" points="988.062 -34.041 991.884 -30.373 986.609 -30.857 988.062 -34.041"/></g><g id="edge40" class="edge"><title>github.com/docker/docker-credential-helpers/credentials-&gt;os</title><path fill="none" stroke="#000" d="M756.4701,-93.9871C695.1682,-74.4536 599.4727,-43.9608 550.0082,-28.1992"/><polygon fill="#000" stroke="#000" points="550.374 -26.479 545.079 -26.628 549.311 -29.814 550.374 -26.479"/></g><g id="edge41" class="edge"><title>github.com/docker/docker-credential-helpers/credentials-&gt;strings</title><path fill="none" stroke="#000" d="M940.8151,-93.9871C1098.6257,-71.7469 1357.2455,-35.2997 1447.6149,-22.564"/><polygon fill="#000" stroke="#000" points="1448.106 -24.262 1452.813 -21.831 1447.618 -20.796 1448.106 -24.262"/></g><g id="node23" class="node"><title>github.com/google/go-containerregistry/pkg/authn</title><g id="a_node23"><a target="_blank" xlink:href="https://godoc.org/github.com/google/go-containerregistry/pkg/authn" xlink:title="github.com/google/go-containerregistry/pkg/authn"><path fill="#afeeee" stroke="#afeeee" d="M1303,-600C1303,-600 1037,-600 1037,-600 1031,-600 1025,-594 1025,-588 1025,-588 1025,-576 1025,-576 1025,-570 1031,-564 1037,-564 1037,-564 1303,-564 1303,-564 1309,-564 1315,-570 1315,-576 1315,-576 1315,-588 1315,-588 1315,-594 1309,-600 1303,-600"/><text x="1170" y="-578.3" fill="#000" font-family="Times,serif" font-size="14" text-anchor="middle">github.com/google/go-containerregistry/pkg/authn</text></a></g></g><g id="edge47" class="edge"><title>github.com/google/go-containerregistry/pkg/authn-&gt;encoding/json</title><path fill="none" stroke="#000" d="M1024.9508,-574.5193C829.7314,-563.3542 493.2775,-539.9443 375,-506 213.8533,-459.7527 59,-467.6516 59,-300 59,-300 59,-300 59,-206 59,-134.2762 124.6313,-71.1736 164.3711,-39.539"/><polygon fill="#000" stroke="#000" points="165.759 -40.674 168.607 -36.207 163.595 -37.923 165.759 -40.674"/></g><g id="edge48" class="edge"><title>github.com/google/go-containerregistry/pkg/authn-&gt;github.com/docker/cli/cli/config</title><path fill="none" stroke="#000" d="M1170,-563.8759C1170,-548.9211 1170,-527.5983 1170,-511.3629"/><polygon fill="#000" stroke="#000" points="1171.75 -511.068 1170 -506.068 1168.25 -511.068 1171.75 -511.068"/></g><g id="edge49" class="edge"><title>github.com/google/go-containerregistry/pkg/authn-&gt;github.com/docker/cli/cli/config/types</title><path fill="none" stroke="#000" d="M1024.8472,-570.6895C771.6299,-545.7577 291.601,-472.3501 462,-282 480.6886,-261.1233 838.8562,-230.1019 1029.6383,-214.9633"/><polygon fill="#000" stroke="#000" points="1029.827 -216.704 1034.674 -214.564 1029.551 -213.215 1029.827 -216.704"/></g><g id="edge52" class="edge"><title>github.com/google/go-containerregistry/pkg/authn-&gt;os</title><path fill="none" stroke="#000" d="M1024.6507,-570.094C867.0858,-556.2002 626.3053,-531.8169 538,-506 353.3099,-452.0042 250.3428,-480.9476 148,-318 53.2875,-167.2011 379.6896,-57.8331 485.7838,-26.8904"/><polygon fill="#000" stroke="#000" points="486.351 -28.548 490.667 -25.476 485.377 -25.186 486.351 -28.548"/></g><g id="node24" class="node"><title>github.com/google/go-containerregistry/pkg/logs</title><g id="a_node24"><a target="_blank" xlink:href="https://godoc.org/github.com/google/go-containerregistry/pkg/logs" xlink:title="github.com/google/go-containerregistry/pkg/logs"><path fill="#afeeee" stroke="#afeeee" d="M1630.5,-506C1630.5,-506 1371.5,-506 1371.5,-506 1365.5,-506 1359.5,-500 1359.5,-494 1359.5,-494 1359.5,-482 1359.5,-482 1359.5,-476 1365.5,-470 1371.5,-470 1371.5,-470 1630.5,-470 1630.5,-470 1636.5,-470 1642.5,-476 1642.5,-482 1642.5,-482 1642.5,-494 1642.5,-494 1642.5,-500 1636.5,-506 1630.5,-506"/><text x="1501" y="-484.3" fill="#000" font-family="Times,serif" font-size="14" text-anchor="middle">github.com/google/go-containerregistry/pkg/logs</text></a></g></g><g id="edge50" class="edge"><title>github.com/google/go-containerregistry/pkg/authn-&gt;github.com/google/go-containerregistry/pkg/logs</title><path fill="none" stroke="#000" d="M1233.4285,-563.9871C1290.4862,-547.7834 1374.0994,-524.0382 1432.629,-507.4165"/><polygon fill="#000" stroke="#000" points="1433.173 -509.081 1437.505 -506.032 1432.217 -505.714 1433.173 -509.081"/></g><g id="node25" class="node"><title>github.com/google/go-containerregistry/pkg/name</title><g id="a_node25"><a target="_blank" xlink:href="https://godoc.org/github.com/google/go-containerregistry/pkg/name" xlink:title="github.com/google/go-containerregistry/pkg/name"><path fill="#afeeee" stroke="#afeeee" d="M2106,-506C2106,-506 1840,-506 1840,-506 1834,-506 1828,-500 1828,-494 1828,-494 1828,-482 1828,-482 1828,-476 1834,-470 1840,-470 1840,-470 2106,-470 2106,-470 2112,-470 2118,-476 2118,-482 2118,-482 2118,-494 2118,-494 2118,-500 2112,-506 2106,-506"/><text x="1973" y="-484.3" fill="#000" font-family="Times,serif" font-size="14" text-anchor="middle">github.com/google/go-containerregistry/pkg/name</text></a></g></g><g id="edge51" class="edge"><title>github.com/google/go-containerregistry/pkg/authn-&gt;github.com/google/go-containerregistry/pkg/name</title><path fill="none" stroke="#000" d="M1315.4172,-564.9773C1459.019,-548.1671 1677.6313,-522.5762 1822.8531,-505.5764"/><polygon fill="#000" stroke="#000" points="1823.225 -507.295 1827.988 -504.975 1822.818 -503.819 1823.225 -507.295"/></g><g id="edge59" class="edge"><title>github.com/google/go-containerregistry/pkg/logs-&gt;io/ioutil</title><path fill="none" stroke="#000" d="M1359.3559,-475.5064C1193.7666,-460.2638 930.0058,-433.8275 833,-412 723.3831,-387.3348 599.1886,-338.8368 540.3782,-314.5625"/><polygon fill="#000" stroke="#000" points="540.864 -312.87 535.575 -312.574 539.525 -316.103 540.864 -312.87"/></g><g id="node30" class="node"><title>log</title><g id="a_node30"><a target="_blank" xlink:href="https://godoc.org/log" xlink:title="log"><path fill="#98fb98" stroke="#98fb98" d="M1725,-412C1725,-412 1695,-412 1695,-412 1689,-412 1683,-406 1683,-400 1683,-400 1683,-388 1683,-388 1683,-382 1689,-376 1695,-376 1695,-376 1725,-376 1725,-376 1731,-376 1737,-382 1737,-388 1737,-388 1737,-400 1737,-400 1737,-406 1731,-412 1725,-412"/><text x="1710" y="-390.3" fill="#000" font-family="Times,serif" font-size="14" text-anchor="middle">log</text></a></g></g><g id="edge60" class="edge"><title>github.com/google/go-containerregistry/pkg/logs-&gt;log</title><path fill="none" stroke="#000" d="M1541.2973,-469.8759C1581.1436,-451.9546 1641.3231,-424.8882 1678.003,-408.391"/><polygon fill="#000" stroke="#000" points="1678.955 -409.882 1682.797 -406.235 1677.52 -406.69 1678.955 -409.882"/></g><g id="edge61" class="edge"><title>github.com/google/go-containerregistry/pkg/name-&gt;fmt</title><path fill="none" stroke="#000" d="M1958.49,-469.9227C1947.7181,-455.2755 1933.9131,-433.5925 1928,-412 1923.774,-396.5682 1925.0684,-391.7291 1928,-376 1938.7373,-318.3907 2012.2627,-187.6093 2023,-130 2025.9316,-114.2709 2027.7287,-109.2853 2023,-94 2016.7808,-73.8967 2003.2102,-54.3746 1991.4918,-40.1506"/><polygon fill="#000" stroke="#000" points="1992.799 -38.986 1988.243 -36.283 1990.119 -41.237 1992.799 -38.986"/></g><g id="edge65" class="edge"><title>github.com/google/go-containerregistry/pkg/name-&gt;strings</title><path fill="none" stroke="#000" d="M1958.2351,-469.7202C1946.6186,-454.7857 1930.5239,-432.8163 1919,-412 1844.8842,-278.1204 1903.0477,-193.7487 1787,-94 1776.4275,-84.9124 1589.3534,-42.3984 1512.5268,-25.2242"/><polygon fill="#000" stroke="#000" points="1512.451 -23.414 1507.19 -24.032 1511.688 -26.83 1512.451 -23.414"/></g><g id="node31" class="node"><title>net</title><g id="a_node31"><a target="_blank" xlink:href="https://godoc.org/net" xlink:title="net"><path fill="#98fb98" stroke="#98fb98" d="M2183,-412C2183,-412 2153,-412 2153,-412 2147,-412 2141,-406 2141,-400 2141,-400 2141,-388 2141,-388 2141,-382 2147,-376 2153,-376 2153,-376 2183,-376 2183,-376 2189,-376 2195,-382 2195,-388 2195,-388 2195,-400 2195,-400 2195,-406 2189,-412 2183,-412"/><text x="2168" y="-390.3" fill="#000" font-family="Times,serif" font-size="14" text-anchor="middle">net</text></a></g></g><g id="edge62" class="edge"><title>github.com/google/go-containerregistry/pkg/name-&gt;net</title><path fill="none" stroke="#000" d="M2010.598,-469.8759C2046.9905,-452.3328 2101.5618,-426.0266 2135.9505,-409.4495"/><polygon fill="#000" stroke="#000" points="2137.129 -410.824 2140.873 -407.077 2135.609 -407.671 2137.129 -410.824"/></g><g id="node32" class="node"><title>net/url</title><g id="a_node32"><a target="_blank" xlink:href="https://godoc.org/net/url" xlink:title="net/url"><path fill="#98fb98" stroke="#98fb98" d="M2266,-412C2266,-412 2236,-412 2236,-412 2230,-412 2224,-406 2224,-400 2224,-400 2224,-388 2224,-388 2224,-382 2230,-376 2236,-376 2236,-376 2266,-376 2266,-376 2272,-376 2278,-382 2278,-388 2278,-388 2278,-400 2278,-400 2278,-406 2272,-412 2266,-412"/><text x="2251" y="-390.3" fill="#000" font-family="Times,serif" font-size="14" text-anchor="middle">net/url</text></a></g></g><g id="edge63" class="edge"><title>github.com/google/go-containerregistry/pkg/name-&gt;net/url</title><path fill="none" stroke="#000" d="M2034.6626,-469.868C2082.5982,-455.3586 2150.5476,-433.8829 2209,-412 2212.1204,-410.8318 2215.3474,-409.5624 2218.5621,-408.2565"/><polygon fill="#000" stroke="#000" points="2219.632 -409.708 2223.586 -406.184 2218.297 -406.473 2219.632 -409.708"/></g><g id="node33" class="node"><title>regexp</title><g id="a_node33"><a target="_blank" xlink:href="https://godoc.org/regexp" xlink:title="regexp"><path fill="#98fb98" stroke="#98fb98" d="M1985,-412C1985,-412 1955,-412 1955,-412 1949,-412 1943,-406 1943,-400 1943,-400 1943,-388 1943,-388 1943,-382 1949,-376 1955,-376 1955,-376 1985,-376 1985,-376 1991,-376 1997,-382 1997,-388 1997,-388 1997,-400 1997,-400 1997,-406 1991,-412 1985,-412"/><text x="1970" y="-390.3" fill="#000" font-family="Times,serif" font-size="14" text-anchor="middle">regexp</text></a></g></g><g id="edge64" class="edge"><title>github.com/google/go-containerregistry/pkg/name-&gt;regexp</title><path fill="none" stroke="#000" d="M1972.4216,-469.8759C1971.9443,-454.9211 1971.2638,-433.5983 1970.7456,-417.3629"/><polygon fill="#000" stroke="#000" points="1972.485 -417.01 1970.577 -412.068 1968.987 -417.122 1972.485 -417.01"/></g><g id="node34" class="node"><title>unicode/utf8</title><g id="a_node34"><a target="_blank" xlink:href="https://godoc.org/unicode/utf8" xlink:title="unicode/utf8"><path fill="#98fb98" stroke="#98fb98" d="M2099.5,-412C2099.5,-412 2038.5,-412 2038.5,-412 2032.5,-412 2026.5,-406 2026.5,-400 2026.5,-400 2026.5,-388 2026.5,-388 2026.5,-382 2032.5,-376 2038.5,-376 2038.5,-376 2099.5,-376 2099.5,-376 2105.5,-376 2111.5,-382 2111.5,-388 2111.5,-388 2111.5,-400 2111.5,-400 2111.5,-406 2105.5,-412 2099.5,-412"/><text x="2069" y="-390.3" fill="#000" font-family="Times,serif" font-size="14" text-anchor="middle">unicode/utf8</text></a></g></g><g id="edge66" class="edge"><title>github.com/google/go-containerregistry/pkg/name-&gt;unicode/utf8</title><path fill="none" stroke="#000" d="M1991.5098,-469.8759C2007.3139,-454.401 2030.0819,-432.1073 2046.8509,-415.6877"/><polygon fill="#000" stroke="#000" points="2048.199 -416.817 2050.547 -412.068 2045.75 -414.316 2048.199 -416.817"/></g><g id="node26" class="node"><title>github.com/google/go-containerregistry/pkg/internal/retry</title><g id="a_node26"><a target="_blank" xlink:href="https://godoc.org/github.com/google/go-containerregistry/pkg/internal/retry" xlink:title="github.com/google/go-containerregistry/pkg/internal/retry"><path fill="#afeeee" stroke="#afeeee" d="M2744.5,-600C2744.5,-600 2437.5,-600 2437.5,-600 2431.5,-600 2425.5,-594 2425.5,-588 2425.5,-588 2425.5,-576 2425.5,-576 2425.5,-570 2431.5,-564 2437.5,-564 2437.5,-564 2744.5,-564 2744.5,-564 2750.5,-564 2756.5,-570 2756.5,-576 2756.5,-576 2756.5,-588 2756.5,-588 2756.5,-594 2750.5,-600 2744.5,-600"/><text x="2591" y="-578.3" fill="#000" font-family="Times,serif" font-size="14" text-anchor="middle">github.com/google/go-containerregistry/pkg/internal/retry</text></a></g></g><g id="edge53" class="edge"><title>github.com/google/go-containerregistry/pkg/internal/retry-&gt;context</title><path fill="none" stroke="#000" d="M2575.768,-563.8759C2562.8718,-548.531 2544.3408,-526.4815 2530.5758,-510.1029"/><polygon fill="#000" stroke="#000" points="2531.742 -508.77 2527.185 -506.068 2529.063 -511.022 2531.742 -508.77"/></g><g id="edge54" class="edge"><title>github.com/google/go-containerregistry/pkg/internal/retry-&gt;fmt</title><path fill="none" stroke="#000" d="M2546.1332,-563.8924C2520.2926,-551.2872 2489.2249,-532.0465 2470,-506 2439.3971,-464.5384 2440,-445.5326 2440,-394 2440,-394 2440,-394 2440,-206 2440,-153.5763 2442.6557,-128.2881 2403,-94 2342.8493,-41.9909 2093.343,-24.26 2003.4565,-19.4922"/><polygon fill="#000" stroke="#000" points="2003.362 -17.735 1998.278 -19.223 2003.18 -21.23 2003.362 -17.735"/></g><g id="node27" class="node"><title>github.com/google/go-containerregistry/pkg/internal/retry/wait</title><g id="a_node27"><a target="_blank" xlink:href="https://godoc.org/github.com/google/go-containerregistry/pkg/internal/retry/wait" xlink:title="github.com/google/go-containerregistry/pkg/internal/retry/wait"><path fill="#afeeee" stroke="#afeeee" d="M2915,-506C2915,-506 2581,-506 2581,-506 2575,-506 2569,-500 2569,-494 2569,-494 2569,-482 2569,-482 2569,-476 2575,-470 2581,-470 2581,-470 2915,-470 2915,-470 2921,-470 2927,-476 2927,-482 2927,-482 2927,-494 2927,-494 2927,-500 2921,-506 2915,-506"/><text x="2748" y="-484.3" fill="#000" font-family="Times,serif" font-size="14" text-anchor="middle">github.com/google/go-containerregistry/pkg/internal/retry/wait</text></a></g></g><g id="edge55" class="edge"><title>github.com/google/go-containerregistry/pkg/internal/retry-&gt;github.com/google/go-containerregistry/pkg/internal/retry/wait</title><path fill="none" stroke="#000" d="M2621.2712,-563.8759C2647.6605,-548.0759 2685.9222,-525.1676 2713.4922,-508.6607"/><polygon fill="#000" stroke="#000" points="2714.431 -510.139 2717.822 -506.068 2712.633 -507.136 2714.431 -510.139"/></g><g id="edge56" class="edge"><title>github.com/google/go-containerregistry/pkg/internal/retry/wait-&gt;errors</title><path fill="none" stroke="#000" d="M2697.469,-469.9738C2590.0101,-431.6393 2341.4084,-342.954 2252.9554,-311.3997"/><polygon fill="#000" stroke="#000" points="2253.41 -309.704 2248.113 -309.672 2252.234 -313 2253.41 -309.704"/></g><g id="node28" class="node"><title>math/rand</title><g id="a_node28"><a target="_blank" xlink:href="https://godoc.org/math/rand" xlink:title="math/rand"><path fill="#98fb98" stroke="#98fb98" d="M2772,-412C2772,-412 2724,-412 2724,-412 2718,-412 2712,-406 2712,-400 2712,-400 2712,-388 2712,-388 2712,-382 2718,-376 2724,-376 2724,-376 2772,-376 2772,-376 2778,-376 2784,-382 2784,-388 2784,-388 2784,-400 2784,-400 2784,-406 2778,-412 2772,-412"/><text x="2748" y="-390.3" fill="#000" font-family="Times,serif" font-size="14" text-anchor="middle">math/rand</text></a></g></g><g id="edge57" class="edge"><title>github.com/google/go-containerregistry/pkg/internal/retry/wait-&gt;math/rand</title><path fill="none" stroke="#000" d="M2748,-469.8759C2748,-454.9211 2748,-433.5983 2748,-417.3629"/><polygon fill="#000" stroke="#000" points="2749.75 -417.068 2748 -412.068 2746.25 -417.068 2749.75 -417.068"/></g><g id="node29" class="node"><title>time</title><g id="a_node29"><a target="_blank" xlink:href="https://godoc.org/time" xlink:title="time"><path fill="#98fb98" stroke="#98fb98" d="M2921,-412C2921,-412 2891,-412 2891,-412 2885,-412 2879,-406 2879,-400 2879,-400 2879,-388 2879,-388 2879,-382 2885,-376 2891,-376 2891,-376 2921,-376 2921,-376 2927,-376 2933,-382 2933,-388 2933,-388 2933,-400 2933,-400 2933,-406 2927,-412 2921,-412"/><text x="2906" y="-390.3" fill="#000" font-family="Times,serif" font-size="14" text-anchor="middle">time</text></a></g></g><g id="edge58" class="edge"><title>github.com/google/go-containerregistry/pkg/internal/retry/wait-&gt;time</title><path fill="none" stroke="#000" d="M2778.464,-469.8759C2806.0429,-453.4682 2846.5064,-429.3949 2874.4248,-412.7853"/><polygon fill="#000" stroke="#000" points="2875.392 -414.246 2878.794 -410.186 2873.602 -411.238 2875.392 -414.246"/></g><g id="node35" class="node"><title>github.com/google/go-containerregistry/pkg/v1/remote/transport</title><g id="a_node35"><a target="_blank" xlink:href="https://godoc.org/github.com/google/go-containerregistry/pkg/v1/remote/transport" xlink:title="github.com/google/go-containerregistry/pkg/v1/remote/transport"><path fill="#afeeee" stroke="#afeeee" d="M2288,-694C2288,-694 1944,-694 1944,-694 1938,-694 1932,-688 1932,-682 1932,-682 1932,-670 1932,-670 1932,-664 1938,-658 1944,-658 1944,-658 2288,-658 2288,-658 2294,-658 2300,-664 2300,-670 2300,-670 2300,-682 2300,-682 2300,-688 2294,-694 2288,-694"/><text x="2116" y="-672.3" fill="#000" font-family="Times,serif" font-size="14" text-anchor="middle">github.com/google/go-containerregistry/pkg/v1/remote/transport</text></a></g></g><g id="edge67" class="edge"><title>github.com/google/go-containerregistry/pkg/v1/remote/transport-&gt;encoding/base64</title><path fill="none" stroke="#000" d="M1931.9625,-668.5155C1644.7457,-656.1342 1103.0357,-629.7791 912,-600 742.6532,-573.6018 695.3448,-573.9546 538,-506 419.5411,-454.8395 295.2762,-362.5606 242.3584,-321.1352"/><polygon fill="#000" stroke="#000" points="243.382 -319.714 238.369 -318.003 241.221 -322.467 243.382 -319.714"/></g><g id="edge68" class="edge"><title>github.com/google/go-containerregistry/pkg/v1/remote/transport-&gt;encoding/json</title><path fill="none" stroke="#000" d="M1931.9205,-669.2048C1417.1107,-648.9922 0,-584.5816 0,-488 0,-488 0,-488 0,-206 0,-124.3433 89.7319,-66.7993 147.1424,-38.3391"/><polygon fill="#000" stroke="#000" points="148.183 -39.778 151.905 -36.008 146.645 -36.634 148.183 -39.778"/></g><g id="edge69" class="edge"><title>github.com/google/go-containerregistry/pkg/v1/remote/transport-&gt;fmt</title><path fill="none" stroke="#000" d="M2189.4654,-657.8977C2267.8907,-633.6575 2381,-582.3435 2381,-488 2381,-488 2381,-488 2381,-206 2381,-123.0113 2099.9384,-48.5681 2003.2301,-25.4098"/><polygon fill="#000" stroke="#000" points="2003.488 -23.672 1998.219 -24.216 2002.677 -27.077 2003.488 -23.672"/></g><g id="edge79" class="edge"><title>github.com/google/go-containerregistry/pkg/v1/remote/transport-&gt;strings</title><path fill="none" stroke="#000" d="M2051.971,-657.9892C1981.8298,-634.7862 1871.5349,-587.4217 1813,-506 1704.2154,-354.6813 1859.8518,-232.36 1735,-94 1719.7682,-77.1202 1577.1558,-41.2558 1512.0894,-25.5889"/><polygon fill="#000" stroke="#000" points="1512.436 -23.872 1507.166 -24.406 1511.619 -27.276 1512.436 -23.872"/></g><g id="edge74" class="edge"><title>github.com/google/go-containerregistry/pkg/v1/remote/transport-&gt;io/ioutil</title><path fill="none" stroke="#000" d="M1931.874,-673.6681C1662.9766,-668.5124 1176.7194,-652.0769 1010,-600 808.4444,-537.0416 602.7197,-379.233 531.8324,-321.5489"/><polygon fill="#000" stroke="#000" points="532.738 -320.029 527.758 -318.222 530.524 -322.74 532.738 -320.029"/></g><g id="edge70" class="edge"><title>github.com/google/go-containerregistry/pkg/v1/remote/transport-&gt;github.com/google/go-containerregistry/pkg/authn</title><path fill="none" stroke="#000" d="M1934.721,-657.9871C1756.3941,-640.2675 1487.3067,-613.5294 1320.4603,-596.9506"/><polygon fill="#000" stroke="#000" points="1320.21 -595.167 1315.061 -596.414 1319.864 -598.65 1320.21 -595.167"/></g><g id="edge72" class="edge"><title>github.com/google/go-containerregistry/pkg/v1/remote/transport-&gt;github.com/google/go-containerregistry/pkg/logs</title><path fill="none" stroke="#000" d="M2003.1445,-657.9396C1932.1439,-645.1194 1839.1201,-625.6344 1759,-600 1679.4792,-574.5574 1591.0895,-533.1381 1541.1524,-508.434"/><polygon fill="#000" stroke="#000" points="1541.698 -506.751 1536.441 -506.097 1540.143 -509.887 1541.698 -506.751"/></g><g id="edge73" class="edge"><title>github.com/google/go-containerregistry/pkg/v1/remote/transport-&gt;github.com/google/go-containerregistry/pkg/name</title><path fill="none" stroke="#000" d="M2102.2886,-657.9738C2076.0903,-623.5313 2018.9753,-548.443 1990.2397,-510.6648"/><polygon fill="#000" stroke="#000" points="1991.3 -509.168 1986.88 -506.248 1988.514 -511.287 1991.3 -509.168"/></g><g id="edge71" class="edge"><title>github.com/google/go-containerregistry/pkg/v1/remote/transport-&gt;github.com/google/go-containerregistry/pkg/internal/retry</title><path fill="none" stroke="#000" d="M2207.0228,-657.9871C2289.5608,-641.6532 2410.8219,-617.6563 2494.9015,-601.0174"/><polygon fill="#000" stroke="#000" points="2495.316 -602.719 2499.881 -600.032 2494.637 -599.286 2495.316 -602.719"/></g><g id="edge80" class="edge"><title>github.com/google/go-containerregistry/pkg/v1/remote/transport-&gt;time</title><path fill="none" stroke="#000" d="M2300.3792,-662.575C2462.7573,-649.2977 2686.2105,-627.0731 2771,-600 2853.6167,-573.6206 2897.8516,-580.6478 2942,-506 2958.933,-477.369 2939.7507,-439.8373 2923.5517,-416.3178"/><polygon fill="#000" stroke="#000" points="2924.884 -415.171 2920.571 -412.094 2922.024 -417.189 2924.884 -415.171"/></g><g id="edge75" class="edge"><title>github.com/google/go-containerregistry/pkg/v1/remote/transport-&gt;net</title><path fill="none" stroke="#000" d="M2119.3319,-657.9306C2128.409,-608.7051 2153.5706,-472.252 2163.6966,-417.3379"/><polygon fill="#000" stroke="#000" points="2165.443 -417.518 2164.628 -412.284 2162.001 -416.884 2165.443 -417.518"/></g><g id="edge78" class="edge"><title>github.com/google/go-containerregistry/pkg/v1/remote/transport-&gt;net/url</title><path fill="none" stroke="#000" d="M2125.971,-657.7097C2134.2333,-642.401 2146.1711,-619.9239 2156,-600 2188.4333,-534.2549 2223.9276,-455.2061 2240.8839,-416.96"/><polygon fill="#000" stroke="#000" points="2242.629 -417.341 2243.054 -412.06 2239.429 -415.923 2242.629 -417.341"/></g><g id="node36" class="node"><title>net/http</title><g id="a_node36"><a target="_blank" xlink:href="https://godoc.org/net/http" xlink:title="net/http"><path fill="#98fb98" stroke="#98fb98" d="M3061,-600C3061,-600 3027,-600 3027,-600 3021,-600 3015,-594 3015,-588 3015,-588 3015,-576 3015,-576 3015,-570 3021,-564 3027,-564 3027,-564 3061,-564 3061,-564 3067,-564 3073,-570 3073,-576 3073,-576 3073,-588 3073,-588 3073,-594 3067,-600 3061,-600"/><text x="3044" y="-578.3" fill="#000" font-family="Times,serif" font-size="14" text-anchor="middle">net/http</text></a></g></g><g id="edge76" class="edge"><title>github.com/google/go-containerregistry/pkg/v1/remote/transport-&gt;net/http</title><path fill="none" stroke="#000" d="M2300.0852,-665.5289C2517.3945,-652.2055 2865.3751,-627.5852 2993,-600 2998.551,-598.8002 3004.3258,-597.1625 3009.909,-595.3609"/><polygon fill="#000" stroke="#000" points="3010.784 -596.914 3014.97 -593.668 3009.674 -593.594 3010.784 -596.914"/></g><g id="node37" class="node"><title>net/http/httputil</title><g id="a_node37"><a target="_blank" xlink:href="https://godoc.org/net/http/httputil" xlink:title="net/http/httputil"><path fill="#98fb98" stroke="#98fb98" d="M3191.5,-600C3191.5,-600 3114.5,-600 3114.5,-600 3108.5,-600 3102.5,-594 3102.5,-588 3102.5,-588 3102.5,-576 3102.5,-576 3102.5,-570 3108.5,-564 3114.5,-564 3114.5,-564 3191.5,-564 3191.5,-564 3197.5,-564 3203.5,-570 3203.5,-576 3203.5,-576 3203.5,-588 3203.5,-588 3203.5,-594 3197.5,-600 3191.5,-600"/><text x="3153" y="-578.3" fill="#000" font-family="Times,serif" font-size="14" text-anchor="middle">net/http/httputil</text></a></g></g><g id="edge77" class="edge"><title>github.com/google/go-containerregistry/pkg/v1/remote/transport-&gt;net/http/httputil</title><path fill="none" stroke="#000" d="M2300.0481,-672.1185C2496.5108,-665.5337 2816.2684,-647.79 3088,-600 3091.1029,-599.4543 3094.2717,-598.8244 3097.458,-598.1342"/><polygon fill="#000" stroke="#000" points="3097.98 -599.81 3102.473 -597.003 3097.21 -596.396 3097.98 -599.81"/></g></g></svg>