<svg xmlns="http://www.w3.org/2000/svg" xmlns:xlink="http://www.w3.org/1999/xlink" width="307pt" height="188pt" viewBox="0 0 307.41 188.47"><g id="graph0" class="graph" transform="scale(1 1) rotate(0) translate(4 184.4722)"><title>%3</title><polygon fill="#fff" stroke="transparent" points="-4 4 -4 -184.472 303.414 -184.472 303.414 4 -4 4"/><g id="node1" class="node"><title>tag</title><ellipse cx="25.914" cy="-99" fill="#000" stroke="#000" rx="3.5" ry="3.5"/></g><g id="node4" class="node"><title>index</title><polygon fill="none" stroke="#000" points="113.414 -117 65.414 -117 65.414 -81 119.414 -81 119.414 -111 113.414 -117"/><polyline fill="none" stroke="#000" points="113.414 -117 113.414 -111"/><polyline fill="none" stroke="#000" points="119.414 -111 113.414 -111"/><text x="92.414" y="-95.3" fill="#000" font-family="Times,serif" font-size="14" text-anchor="middle">index</text></g><g id="edge1" class="edge"><title>tag:head-&gt;index</title><path fill="none" stroke="#000" d="M29.4894,-99C34.6004,-99 44.5446,-99 55.0454,-99"/><polygon fill="#000" stroke="#000" points="55.144 -102.5 65.144 -99 55.144 -95.5 55.144 -102.5"/><text x="23" y="-115.272" fill="#000" font-family="Times,serif" font-size="14" text-anchor="middle">r124356</text></g><g id="node2" class="node"><title>tag2</title><ellipse cx="92.414" cy="-45" fill="#000" stroke="#000" rx="3.5" ry="3.5"/></g><g id="node5" class="node"><title>index2</title><polygon fill="none" stroke="#000" points="203.414 -63 155.414 -63 155.414 -27 209.414 -27 209.414 -57 203.414 -63"/><polyline fill="none" stroke="#000" points="203.414 -63 203.414 -57"/><polyline fill="none" stroke="#000" points="209.414 -57 203.414 -57"/><text x="182.414" y="-41.3" fill="#000" font-family="Times,serif" font-size="14" text-anchor="middle">index</text></g><g id="edge2" class="edge"><title>tag2:head-&gt;index2</title><path fill="none" stroke="#000" d="M96.2812,-45C104.7802,-45 125.8583,-45 145.0347,-45"/><polygon fill="#000" stroke="#000" points="145.106 -48.5 155.106 -45 145.106 -41.5 145.106 -48.5"/><text x="89.792" y="-61.272" fill="#000" font-family="Times,serif" font-size="14" text-anchor="middle">stable-release</text></g><g id="node3" class="node"><title>tag3</title><ellipse cx="92.414" cy="-153" fill="#000" stroke="#000" rx="3.5" ry="3.5"/></g><g id="node6" class="node"><title>image</title><polygon fill="none" stroke="#000" points="203.414 -171 155.414 -171 155.414 -135 209.414 -135 209.414 -165 203.414 -171"/><polyline fill="none" stroke="#000" points="203.414 -171 203.414 -165"/><polyline fill="none" stroke="#000" points="209.414 -165 203.414 -165"/><text x="182.414" y="-149.3" fill="#000" font-family="Times,serif" font-size="14" text-anchor="middle">image</text></g><g id="edge3" class="edge"><title>tag3:head-&gt;image</title><path fill="none" stroke="#000" d="M96.2812,-153C104.7802,-153 125.8583,-153 145.0347,-153"/><polygon fill="#000" stroke="#000" points="145.106 -156.5 155.106 -153 145.106 -149.5 145.106 -156.5"/><text x="89.792" y="-169.272" fill="#000" font-family="Times,serif" font-size="14" text-anchor="middle">v1.0</text></g><g id="edge6" class="edge"><title>index-&gt;index2</title><path fill="none" stroke="#000" d="M119.417,-82.7982C127.8826,-77.7188 137.3656,-72.029 146.353,-66.6366"/><polygon fill="#000" stroke="#000" points="148.345 -69.523 155.119 -61.377 144.743 -63.521 148.345 -69.523"/></g><g id="edge4" class="edge"><title>index-&gt;image</title><path fill="none" stroke="#000" d="M119.417,-115.2018C127.8826,-120.2812 137.3656,-125.971 146.353,-131.3634"/><polygon fill="#000" stroke="#000" points="144.743 -134.479 155.119 -136.623 148.345 -128.477 144.743 -134.479"/></g><g id="node9" class="node"><title>xml</title><ellipse cx="182.414" cy="-99" fill="none" stroke="#000" rx="27" ry="18"/><text x="182.414" y="-95.3" fill="#000" font-family="Times,serif" font-size="14" text-anchor="middle">xml</text></g><g id="edge5" class="edge"><title>index-&gt;xml</title><path fill="none" stroke="#000" d="M119.417,-99C127.4417,-99 136.3806,-99 144.9449,-99"/><polygon fill="#000" stroke="#000" points="145.119 -102.5 155.119 -99 145.119 -95.5 145.119 -102.5"/></g><g id="node7" class="node"><title>image2</title><polygon fill="none" stroke="#000" points="293.414 -90 245.414 -90 245.414 -54 299.414 -54 299.414 -84 293.414 -90"/><polyline fill="none" stroke="#000" points="293.414 -90 293.414 -84"/><polyline fill="none" stroke="#000" points="299.414 -84 293.414 -84"/><text x="272.414" y="-68.3" fill="#000" font-family="Times,serif" font-size="14" text-anchor="middle">image</text></g><g id="edge7" class="edge"><title>index2-&gt;image2</title><path fill="none" stroke="#000" d="M209.417,-53.1009C217.6181,-55.5612 226.7739,-58.308 235.509,-60.9285"/><polygon fill="#000" stroke="#000" points="234.535 -64.29 245.119 -63.812 236.547 -57.586 234.535 -64.29"/></g><g id="node8" class="node"><title>image3</title><polygon fill="none" stroke="#000" points="293.414 -36 245.414 -36 245.414 0 299.414 0 299.414 -30 293.414 -36"/><polyline fill="none" stroke="#000" points="293.414 -36 293.414 -30"/><polyline fill="none" stroke="#000" points="299.414 -30 293.414 -30"/><text x="272.414" y="-14.3" fill="#000" font-family="Times,serif" font-size="14" text-anchor="middle">image</text></g><g id="edge8" class="edge"><title>index2-&gt;image3</title><path fill="none" stroke="#000" d="M209.417,-36.8991C217.6181,-34.4388 226.7739,-31.692 235.509,-29.0715"/><polygon fill="#000" stroke="#000" points="236.547 -32.414 245.119 -26.189 234.535 -25.71 236.547 -32.414"/></g></g></svg>