<svg xmlns="http://www.w3.org/2000/svg" xmlns:xlink="http://www.w3.org/1999/xlink" width="680" height="413pt" viewBox="0 0 510 413"><g id="graph0" class="graph" transform="scale(1 1) rotate(0) translate(4 409)"><title>%3</title><polygon fill="#fff" stroke="transparent" points="-4 4 -4 -409 506 -409 506 4 -4 4"/><g id="clust1" class="cluster"><title>cluster_source</title><polygon fill="none" stroke="#000" points="28 -322 28 -397 473 -397 473 -322 28 -322"/><text x="250.5" y="-381.8" fill="#000" font-family="Times,serif" font-size="14" text-anchor="middle">Sources</text></g><g id="clust2" class="cluster"><title>cluster_mutate</title><polygon fill="none" stroke="#000" points="8 -175 8 -250 479 -250 479 -175 8 -175"/><text x="243.5" y="-234.8" fill="#000" font-family="Times,serif" font-size="14" text-anchor="middle">mutate</text></g><g id="clust3" class="cluster"><title>cluster_sinks</title><polygon fill="none" stroke="#000" points="8 -8 8 -83 494 -83 494 -8 8 -8"/><text x="251" y="-15.8" fill="#000" font-family="Times,serif" font-size="14" text-anchor="middle">Sinks</text></g><g id="node1" class="node"><title>input</title><polygon fill="none" stroke="#000" points="287 -294 219 -294 219 -258 287 -258 287 -294"/><text x="253" y="-272.3" fill="#000" font-family="Times,serif" font-size="14" text-anchor="middle">v1.Image</text></g><g id="node8" class="node"><title>mutateconfig</title><ellipse cx="436" cy="-201" fill="none" stroke="#000" rx="35.194" ry="18"/><text x="436" y="-197.3" fill="#000" font-family="Times,serif" font-size="14" text-anchor="middle">Config</text></g><g id="edge6" class="edge"><title>input-&gt;mutateconfig</title><path fill="none" stroke="#000" d="M287.1531,-272.1612C322.3405,-267.7595 374.4502,-259.863 392,-250 402.3783,-244.1674 411.5932,-234.9731 418.8743,-226.1167"/><polygon fill="#000" stroke="#000" points="421.657 -228.24 424.995 -218.184 416.115 -223.963 421.657 -228.24"/></g><g id="node9" class="node"><title>mutatetime</title><ellipse cx="353" cy="-201" fill="none" stroke="#000" rx="29.795" ry="18"/><text x="353" y="-197.3" fill="#000" font-family="Times,serif" font-size="14" text-anchor="middle">Time</text></g><g id="edge7" class="edge"><title>input-&gt;mutatetime</title><path fill="none" stroke="#000" d="M287.2346,-264.8998C296.4336,-261.0133 306.0312,-256.0671 314,-250 322.4749,-243.5475 330.1749,-234.8575 336.452,-226.5875"/><polygon fill="#000" stroke="#000" points="339.462 -228.397 342.451 -218.233 333.775 -224.314 339.462 -228.397"/></g><g id="node10" class="node"><title>mutatemediatype</title><ellipse cx="253" cy="-201" fill="none" stroke="#000" rx="51.991" ry="18"/><text x="253" y="-197.3" fill="#000" font-family="Times,serif" font-size="14" text-anchor="middle">MediaType</text></g><g id="edge8" class="edge"><title>input-&gt;mutatemediatype</title><path fill="none" stroke="#000" d="M253,-257.8446C253,-249.3401 253,-239.0076 253,-229.4964"/><polygon fill="#000" stroke="#000" points="256.5 -229.248 253 -219.248 249.5 -229.248 256.5 -229.248"/></g><g id="node11" class="node"><title>mutateappend</title><ellipse cx="145" cy="-201" fill="none" stroke="#000" rx="38.194" ry="18"/><text x="145" y="-197.3" fill="#000" font-family="Times,serif" font-size="14" text-anchor="middle">Append</text></g><g id="edge9" class="edge"><title>input-&gt;mutateappend</title><path fill="none" stroke="#000" d="M218.8031,-264.276C209.7024,-260.4082 200.1455,-255.6275 192,-250 182.1987,-243.2286 172.8112,-234.167 165.0383,-225.6788"/><polygon fill="#000" stroke="#000" points="167.624 -223.319 158.388 -218.127 162.37 -227.945 167.624 -223.319"/></g><g id="node12" class="node"><title>mutaterebase</title><ellipse cx="52" cy="-201" fill="none" stroke="#000" rx="36.294" ry="18"/><text x="52" y="-197.3" fill="#000" font-family="Times,serif" font-size="14" text-anchor="middle">Rebase</text></g><g id="edge10" class="edge"><title>input-&gt;mutaterebase</title><path fill="none" stroke="#000" d="M218.8523,-272.8393C179.727,-268.7745 118.3864,-260.9153 98,-250 87.2892,-244.2652 77.6813,-235.0892 70.0511,-226.22"/><polygon fill="#000" stroke="#000" points="72.633 -223.846 63.625 -218.269 67.189 -228.246 72.633 -223.846"/></g><g id="node2" class="node"><title>output</title><polygon fill="none" stroke="#000" points="287 -147 219 -147 219 -111 287 -111 287 -147"/><text x="253" y="-125.3" fill="#000" font-family="Times,serif" font-size="14" text-anchor="middle">v1.Image</text></g><g id="node13" class="node"><title>remotesink</title><ellipse cx="450" cy="-57" fill="none" stroke="#000" rx="35.995" ry="18"/><text x="450" y="-53.3" fill="#000" font-family="Times,serif" font-size="14" text-anchor="middle">remote</text></g><g id="edge20" class="edge"><title>output-&gt;remotesink</title><path fill="none" stroke="#000" d="M287.303,-121.0277C318.6434,-113.1846 365.9147,-99.9363 405,-83 409.5224,-81.0404 414.1637,-78.7332 418.6672,-76.3161"/><polygon fill="#000" stroke="#000" points="420.632 -79.227 427.636 -71.276 417.203 -73.124 420.632 -79.227"/></g><g id="node14" class="node"><title>tarballsink</title><ellipse cx="363" cy="-57" fill="none" stroke="#000" rx="33.295" ry="18"/><text x="363" y="-53.3" fill="#000" font-family="Times,serif" font-size="14" text-anchor="middle">tarball</text></g><g id="edge19" class="edge"><title>output-&gt;tarballsink</title><path fill="none" stroke="#000" d="M280.7576,-110.8314C296.6532,-100.427 316.6101,-87.3643 332.8841,-76.7122"/><polygon fill="#000" stroke="#000" points="335.047 -79.48 341.497 -71.075 331.213 -73.623 335.047 -79.48"/></g><g id="node15" class="node"><title>legacy/tarballsink</title><ellipse cx="253" cy="-57" fill="none" stroke="#000" rx="58.49" ry="18"/><text x="253" y="-53.3" fill="#000" font-family="Times,serif" font-size="14" text-anchor="middle">legacy/tarball</text></g><g id="edge16" class="edge"><title>output-&gt;legacy/tarballsink</title><path fill="none" stroke="#000" d="M253,-110.8314C253,-103.131 253,-93.9743 253,-85.4166"/><polygon fill="#000" stroke="#000" points="256.5 -85.413 253 -75.413 249.5 -85.413 256.5 -85.413"/></g><g id="node16" class="node"><title>layoutsink</title><ellipse cx="144" cy="-57" fill="none" stroke="#000" rx="32.494" ry="18"/><text x="144" y="-53.3" fill="#000" font-family="Times,serif" font-size="14" text-anchor="middle">layout</text></g><g id="edge17" class="edge"><title>output-&gt;layoutsink</title><path fill="none" stroke="#000" d="M225.4947,-110.8314C209.6373,-100.3567 189.7007,-87.1876 173.5158,-76.4967"/><polygon fill="#000" stroke="#000" points="175.233 -73.436 164.96 -70.845 171.375 -79.277 175.233 -73.436"/></g><g id="node17" class="node"><title>daemonsink</title><ellipse cx="55" cy="-57" fill="none" stroke="#000" rx="38.993" ry="18"/><text x="55" y="-53.3" fill="#000" font-family="Times,serif" font-size="14" text-anchor="middle">daemon</text></g><g id="edge18" class="edge"><title>output-&gt;daemonsink</title><path fill="none" stroke="#000" d="M218.9614,-120.6358C188.1089,-112.5708 141.6852,-99.2189 103,-83 98.2065,-80.9903 93.2639,-78.6484 88.456,-76.2089"/><polygon fill="#000" stroke="#000" points="89.929 -73.029 79.451 -71.459 86.663 -79.22 89.929 -73.029"/></g><g id="node3" class="node"><title>remotesource</title><ellipse cx="429" cy="-348" fill="none" stroke="#000" rx="35.995" ry="18"/><text x="429" y="-344.3" fill="#000" font-family="Times,serif" font-size="14" text-anchor="middle">remote</text></g><g id="edge5" class="edge"><title>remotesource-&gt;input</title><path fill="none" stroke="#000" d="M406.5444,-333.9282C399.4756,-329.7994 391.5425,-325.4665 384,-322 355.7704,-309.0257 322.7595,-297.4554 296.9378,-289.1642"/><polygon fill="#000" stroke="#000" points="297.653 -285.719 287.063 -286.04 295.541 -292.394 297.653 -285.719"/></g><g id="node4" class="node"><title>tarballsource</title><ellipse cx="342" cy="-348" fill="none" stroke="#000" rx="33.295" ry="18"/><text x="342" y="-344.3" fill="#000" font-family="Times,serif" font-size="14" text-anchor="middle">tarball</text></g><g id="edge4" class="edge"><title>tarballsource-&gt;input</title><path fill="none" stroke="#000" d="M323.1254,-332.7307C311.5473,-323.3641 296.4585,-311.1575 283.2447,-300.4676"/><polygon fill="#000" stroke="#000" points="285.284 -297.615 275.308 -294.047 280.881 -303.057 285.284 -297.615"/></g><g id="node5" class="node"><title>randomsource</title><ellipse cx="253" cy="-348" fill="none" stroke="#000" rx="38.194" ry="18"/><text x="253" y="-344.3" fill="#000" font-family="Times,serif" font-size="14" text-anchor="middle">random</text></g><g id="edge1" class="edge"><title>randomsource-&gt;input</title><path fill="none" stroke="#000" d="M253,-329.8314C253,-322.131 253,-312.9743 253,-304.4166"/><polygon fill="#000" stroke="#000" points="256.5 -304.413 253 -294.413 249.5 -304.413 256.5 -304.413"/></g><g id="node6" class="node"><title>layoutsource</title><ellipse cx="164" cy="-348" fill="none" stroke="#000" rx="32.494" ry="18"/><text x="164" y="-344.3" fill="#000" font-family="Times,serif" font-size="14" text-anchor="middle">layout</text></g><g id="edge2" class="edge"><title>layoutsource-&gt;input</title><path fill="none" stroke="#000" d="M182.4409,-333.0816C193.9939,-323.7353 209.165,-311.462 222.4783,-300.6917"/><polygon fill="#000" stroke="#000" points="224.905 -303.23 230.479 -294.219 220.503 -297.788 224.905 -303.23"/></g><g id="node7" class="node"><title>daemonsource</title><ellipse cx="75" cy="-348" fill="none" stroke="#000" rx="38.993" ry="18"/><text x="75" y="-344.3" fill="#000" font-family="Times,serif" font-size="14" text-anchor="middle">daemon</text></g><g id="edge3" class="edge"><title>daemonsource-&gt;input</title><path fill="none" stroke="#000" d="M99.5417,-333.7511C106.9591,-329.7065 115.2057,-325.4645 123,-322 151.0042,-309.5525 183.5065,-298.0518 209.0065,-289.6634"/><polygon fill="#000" stroke="#000" points="210.336 -292.912 218.764 -286.493 208.172 -286.254 210.336 -292.912"/></g><g id="edge11" class="edge"><title>mutateconfig-&gt;output</title><path fill="none" stroke="#000" d="M414.1129,-186.8193C407.2039,-182.686 399.4313,-178.3781 392,-175 361.1889,-160.9941 324.8265,-149.1138 297.0223,-140.9367"/><polygon fill="#000" stroke="#000" points="297.771 -137.51 287.192 -138.095 295.826 -144.234 297.771 -137.51"/></g><g id="edge12" class="edge"><title>mutatetime-&gt;output</title><path fill="none" stroke="#000" d="M333.719,-187.1177C320.4063,-177.5325 302.3499,-164.5319 286.6904,-153.2571"/><polygon fill="#000" stroke="#000" points="288.443 -150.206 278.283 -147.203 284.353 -155.887 288.443 -150.206"/></g><g id="edge13" class="edge"><title>mutatemediatype-&gt;output</title><path fill="none" stroke="#000" d="M253,-182.8314C253,-175.131 253,-165.9743 253,-157.4166"/><polygon fill="#000" stroke="#000" points="256.5 -157.413 253 -147.413 249.5 -157.413 256.5 -157.413"/></g><g id="edge14" class="edge"><title>mutateappend-&gt;output</title><path fill="none" stroke="#000" d="M167.116,-186.256C181.6204,-176.5864 200.9061,-163.7292 217.5271,-152.6486"/><polygon fill="#000" stroke="#000" points="219.557 -155.502 225.936 -147.042 215.674 -149.677 219.557 -155.502"/></g><g id="edge15" class="edge"><title>mutaterebase-&gt;output</title><path fill="none" stroke="#000" d="M74.8826,-186.7207C82.1056,-182.5835 90.2314,-178.298 98,-175 134.3708,-159.5595 177.6081,-147.1912 209.1638,-139.185"/><polygon fill="#000" stroke="#000" points="210.118 -142.554 218.975 -136.74 208.426 -135.762 210.118 -142.554"/></g></g></svg>