<svg xmlns="http://www.w3.org/2000/svg" xmlns:xlink="http://www.w3.org/1999/xlink" width="490pt" height="368pt" viewBox="0 0 489.55 368"><g id="graph0" class="graph" transform="scale(1 1) rotate(0) translate(4 364)"><title>%3</title><polygon fill="#fff" stroke="transparent" points="-4 4 -4 -364 485.55 -364 485.55 4 -4 4"/><g id="clust1" class="cluster"><title>cluster_registry</title><polygon fill="none" stroke="#000" points="0 -8 0 -352 481.55 -352 481.55 -8 0 -8"/><text x="240.775" y="-336.8" fill="#000" font-family="Times,serif" font-size="14" text-anchor="middle">registry</text></g><g id="clust2" class="cluster"><title>cluster_tags</title><polygon fill="none" stroke="#000" points="8 -24 8 -153 103 -153 103 -24 8 -24"/><text x="55.5" y="-137.8" fill="#000" font-family="Times,serif" font-size="14" text-anchor="middle">/v2/.../tags/list</text></g><g id="clust3" class="cluster"><title>cluster_manifests</title><polygon fill="none" stroke="#000" points="123 -16 123 -321 314 -321 314 -16 123 -16"/><text x="218.5" y="-305.8" fill="#000" font-family="Times,serif" font-size="14" text-anchor="middle">/v2/.../manifests/&lt;ref&gt;</text></g><g id="clust4" class="cluster"><title>cluster_manifest</title><polygon fill="none" stroke="#000" points="236 -24 236 -153 306 -153 306 -24 236 -24"/><text x="271" y="-137.8" fill="#000" font-family="Times,serif" font-size="14" text-anchor="middle">manifest</text></g><g id="clust5" class="cluster"><title>cluster_manifest2</title><polygon fill="none" stroke="#000" points="236 -161 236 -290 306 -290 306 -161 236 -161"/><text x="271" y="-274.8" fill="#000" font-family="Times,serif" font-size="14" text-anchor="middle">manifest</text></g><g id="clust6" class="cluster"><title>cluster_index</title><polygon fill="none" stroke="#000" points="131 -78 131 -153 216 -153 216 -78 131 -78"/><text x="173.5" y="-137.8" fill="#000" font-family="Times,serif" font-size="14" text-anchor="middle">index</text></g><g id="clust7" class="cluster"><title>cluster_blobs</title><polygon fill="none" stroke="#000" points="334 -20 334 -311 473.55 -311 473.55 -20 334 -20"/><text x="403.775" y="-295.8" fill="#000" font-family="Times,serif" font-size="14" text-anchor="middle">/v2/.../blobs/&lt;sha256&gt;</text></g><g id="node1" class="node"><title>tag</title><polygon fill="none" stroke="#000" points="82 -68 28 -68 28 -32 82 -32 82 -68"/><text x="55" y="-46.3" fill="#000" font-family="Times,serif" font-size="14" text-anchor="middle">tag</text></g><g id="node3" class="node"><title>mconfig</title><polygon fill="none" stroke="#000" points="298 -68 244 -68 244 -32 298 -32 298 -68"/><text x="271" y="-46.3" fill="#000" font-family="Times,serif" font-size="14" text-anchor="middle">config</text></g><g id="edge9" class="edge"><title>tag-&gt;mconfig</title><path fill="none" stroke="#000" stroke-dasharray="5 2" d="M82.3565,-50C120.7403,-50 190.6983,-50 233.7878,-50"/><polygon fill="#000" stroke="#000" points="226 -53.501 236 -50 226 -46.501 226 -53.501"/></g><g id="node2" class="node"><title>tag2</title><polygon fill="none" stroke="#000" points="82 -122 28 -122 28 -86 82 -86 82 -122"/><text x="55" y="-100.3" fill="#000" font-family="Times,serif" font-size="14" text-anchor="middle">tag</text></g><g id="node7" class="node"><title>imanifest</title><polygon fill="none" stroke="#000" points="208 -122 139 -122 139 -86 208 -86 208 -122"/><text x="173.5" y="-100.3" fill="#000" font-family="Times,serif" font-size="14" text-anchor="middle">manifests</text></g><g id="edge10" class="edge"><title>tag2-&gt;imanifest</title><path fill="none" stroke="#000" stroke-dasharray="5 2" d="M82.1863,-104C95.9752,-104 113.0796,-104 128.744,-104"/><polygon fill="#000" stroke="#000" points="121 -107.5 131 -104 121 -100.5 121 -107.5"/></g><g id="node8" class="node"><title>bconfig</title><polygon fill="none" stroke="#000" points="441.326 -46 422.3 -64 384.249 -64 365.224 -46 384.249 -28 422.3 -28 441.326 -46"/><text x="403.275" y="-42.3" fill="#000" font-family="Times,serif" font-size="14" text-anchor="middle">config</text></g><g id="edge7" class="edge"><title>mconfig-&gt;bconfig</title><path fill="none" stroke="#000" d="M298.087,-49.1809C314.7449,-48.6772 336.552,-48.0177 355.9889,-47.4299"/><polygon fill="#000" stroke="#000" points="356.306 -50.922 366.195 -47.121 356.094 -43.925 356.306 -50.922"/></g><g id="node4" class="node"><title>layers</title><polygon fill="none" stroke="#000" points="298 -122 244 -122 244 -86 298 -86 298 -122"/><text x="271" y="-100.3" fill="#000" font-family="Times,serif" font-size="14" text-anchor="middle">layers</text></g><g id="node10" class="node"><title>l1</title><polygon fill="none" stroke="#000" points="430.275 -118 427.275 -122 406.275 -122 403.275 -118 376.275 -118 376.275 -82 430.275 -82 430.275 -118"/><text x="403.275" y="-96.3" fill="#000" font-family="Times,serif" font-size="14" text-anchor="middle">layer</text></g><g id="edge3" class="edge"><title>layers-&gt;l1</title><path fill="none" stroke="#000" d="M298.087,-103.1809C317.7033,-102.5877 344.4602,-101.7786 366.0782,-101.1248"/><polygon fill="#000" stroke="#000" points="366.334 -104.619 376.224 -100.818 366.123 -97.622 366.334 -104.619"/></g><g id="node11" class="node"><title>l2</title><polygon fill="none" stroke="#000" points="430.275 -172 427.275 -176 406.275 -176 403.275 -172 376.275 -172 376.275 -136 430.275 -136 430.275 -172"/><text x="403.275" y="-150.3" fill="#000" font-family="Times,serif" font-size="14" text-anchor="middle">layer</text></g><g id="edge4" class="edge"><title>layers-&gt;l2</title><path fill="none" stroke="#000" d="M298.087,-114.2389C317.8816,-121.7213 344.9472,-131.9521 366.6665,-140.162"/><polygon fill="#000" stroke="#000" points="365.633 -143.513 376.224 -143.775 368.108 -136.965 365.633 -143.513"/></g><g id="node5" class="node"><title>mconfig2</title><polygon fill="none" stroke="#000" points="298 -259 244 -259 244 -223 298 -223 298 -259"/><text x="271" y="-237.3" fill="#000" font-family="Times,serif" font-size="14" text-anchor="middle">config</text></g><g id="node9" class="node"><title>bconfig2</title><polygon fill="none" stroke="#000" points="441.326 -262 422.3 -280 384.249 -280 365.224 -262 384.249 -244 422.3 -244 441.326 -262"/><text x="403.275" y="-258.3" fill="#000" font-family="Times,serif" font-size="14" text-anchor="middle">config</text></g><g id="edge8" class="edge"><title>mconfig2-&gt;bconfig2</title><path fill="none" stroke="#000" d="M298.087,-245.3003C316.0623,-248.1541 340.0335,-251.9598 360.5522,-255.2173"/><polygon fill="#000" stroke="#000" points="360.186 -258.703 370.611 -256.814 361.283 -251.79 360.186 -258.703"/></g><g id="node6" class="node"><title>layers2</title><polygon fill="none" stroke="#000" points="298 -205 244 -205 244 -169 298 -169 298 -205"/><text x="271" y="-183.3" fill="#000" font-family="Times,serif" font-size="14" text-anchor="middle">layers</text></g><g id="edge5" class="edge"><title>layers2-&gt;l2</title><path fill="none" stroke="#000" d="M298.087,-180.2423C317.7924,-175.3262 344.7036,-168.6124 366.3727,-163.2064"/><polygon fill="#000" stroke="#000" points="367.369 -166.565 376.224 -160.749 365.674 -159.773 367.369 -166.565"/></g><g id="node12" class="node"><title>l3</title><polygon fill="none" stroke="#000" points="430.275 -226 427.275 -230 406.275 -230 403.275 -226 376.275 -226 376.275 -190 430.275 -190 430.275 -226"/><text x="403.275" y="-204.3" fill="#000" font-family="Times,serif" font-size="14" text-anchor="middle">layer</text></g><g id="edge6" class="edge"><title>layers2-&gt;l3</title><path fill="none" stroke="#000" d="M298.087,-191.3003C317.7033,-194.4146 344.4602,-198.6626 366.0782,-202.0946"/><polygon fill="#000" stroke="#000" points="365.799 -205.594 376.224 -203.705 366.897 -198.681 365.799 -205.594"/></g><g id="edge1" class="edge"><title>imanifest-&gt;mconfig</title><path fill="none" stroke="#000" d="M206.2373,-85.8686C215.4605,-80.7603 225.5439,-75.1757 234.9494,-69.9665"/><polygon fill="#000" stroke="#000" points="230.435 -78.131 236 -69.115 226.027 -72.693 230.435 -78.131"/></g><g id="edge2" class="edge"><title>imanifest-&gt;mconfig2</title><path fill="none" stroke="#000" d="M181.0913,-122.1444C190.3822,-143.0951 207.6041,-178.2366 229.4113,-206.011"/><polygon fill="#000" stroke="#000" points="226.937 -208.512 236 -214 232.338 -204.058 226.937 -208.512"/></g></g></svg>