<svg xmlns="http://www.w3.org/2000/svg" xmlns:xlink="http://www.w3.org/1999/xlink" width="533pt" height="767pt" viewBox="0 0 533.09 767"><g id="graph0" class="graph" transform="scale(1 1) rotate(0) translate(4 763)"><title>G</title><polygon fill="#fff" stroke="transparent" points="-4 4 -4 -763 529.095 -763 529.095 4 -4 4"/><g id="clust1" class="cluster"><title>cluster_goroutine</title><polygon fill="none" stroke="#000" points="8 -208 8 -715 396 -715 396 -208 8 -208"/><text x="202" y="-699.8" fill="#000" font-family="Times,serif" font-size="14" text-anchor="middle">goroutine</text></g><g id="node1" class="node"><title>fs</title><polygon fill="none" stroke="#000" points="166 -759 163 -763 142 -763 139 -759 112 -759 112 -723 166 -723 166 -759"/><text x="139" y="-737.3" fill="#000" font-family="Times,serif" font-size="14" text-anchor="middle">input</text></g><g id="node6" class="node"><title>rc</title><ellipse cx="139" cy="-666" fill="none" stroke="#000" rx="61.189" ry="18"/><text x="139" y="-662.3" fill="#000" font-family="Times,serif" font-size="14" text-anchor="middle">io.ReadCloser</text></g><g id="edge12" class="edge"><title>fs-&gt;rc</title><path fill="none" stroke="#000" stroke-width="2" d="M139,-722.8446C139,-714.3401 139,-704.0076 139,-694.4964"/><polygon fill="#000" stroke="#000" stroke-width="2" points="142.5 -694.248 139 -684.248 135.5 -694.248 142.5 -694.248"/></g><g id="node2" class="node"><title>pr</title><ellipse cx="464" cy="-234" fill="none" stroke="#000" rx="60.389" ry="18"/><text x="464" y="-230.3" fill="#000" font-family="Times,serif" font-size="14" text-anchor="middle">io.PipeReader</text></g><g id="node3" class="node"><title>compressed</title><polygon fill="none" stroke="#000" points="510.5 -180 417.5 -180 417.5 -144 510.5 -144 510.5 -180"/><text x="464" y="-158.3" fill="#000" font-family="Times,serif" font-size="14" text-anchor="middle">Compressed()</text></g><g id="edge14" class="edge"><title>pr-&gt;compressed</title><path fill="none" stroke="#000" stroke-width="2" d="M464,-215.8314C464,-208.131 464,-198.9743 464,-190.4166"/><polygon fill="#000" stroke="#000" stroke-width="2" points="467.5 -190.413 464 -180.413 460.5 -190.413 467.5 -190.413"/></g><g id="node4" class="node"><title>rc2</title><ellipse cx="464" cy="-90" fill="none" stroke="#000" rx="61.189" ry="18"/><text x="464" y="-86.3" fill="#000" font-family="Times,serif" font-size="14" text-anchor="middle">io.ReadCloser</text></g><g id="edge15" class="edge"><title>compressed-&gt;rc2</title><path fill="none" stroke="#000" stroke-width="2" d="M464,-143.8314C464,-136.131 464,-126.9743 464,-118.4166"/><polygon fill="#000" stroke="#000" stroke-width="2" points="467.5 -118.413 464 -108.413 460.5 -118.413 467.5 -118.413"/></g><g id="node5" class="node"><title>output</title><path fill="none" stroke="#000" d="M491,-32.7273C491,-34.5331 478.8982,-36 464,-36 449.1018,-36 437,-34.5331 437,-32.7273 437,-32.7273 437,-3.2727 437,-3.2727 437,-1.4669 449.1018,0 464,0 478.8982,0 491,-1.4669 491,-3.2727 491,-3.2727 491,-32.7273 491,-32.7273"/><path fill="none" stroke="#000" d="M491,-32.7273C491,-30.9214 478.8982,-29.4545 464,-29.4545 449.1018,-29.4545 437,-30.9214 437,-32.7273"/><text x="464" y="-14.3" fill="#000" font-family="Times,serif" font-size="14" text-anchor="middle">output</text></g><g id="edge16" class="edge"><title>rc2-&gt;output</title><path fill="none" stroke="#000" stroke-width="2" d="M464,-71.8314C464,-64.131 464,-54.9743 464,-46.4166"/><polygon fill="#000" stroke="#000" stroke-width="2" points="467.5 -46.413 464 -36.413 460.5 -46.413 467.5 -46.413"/></g><g id="node7" class="node"><title>copy</title><ellipse cx="139" cy="-594" fill="none" stroke="#000" rx="38.993" ry="18"/><text x="139" y="-590.3" fill="#000" font-family="Times,serif" font-size="14" text-anchor="middle">io.Copy</text></g><g id="edge1" class="edge"><title>rc-&gt;copy</title><path fill="none" stroke="#000" stroke-width="2" d="M139,-647.8314C139,-640.131 139,-630.9743 139,-622.4166"/><polygon fill="#000" stroke="#000" stroke-width="2" points="142.5 -622.413 139 -612.413 135.5 -622.413 142.5 -622.413"/></g><g id="node9" class="node"><title>mw</title><ellipse cx="139" cy="-522" fill="none" stroke="#000" rx="63.889" ry="18"/><text x="139" y="-518.3" fill="#000" font-family="Times,serif" font-size="14" text-anchor="middle">io.MultiWriter</text></g><g id="edge2" class="edge"><title>copy-&gt;mw</title><path fill="none" stroke="#000" stroke-width="2" d="M139,-575.8314C139,-568.131 139,-558.9743 139,-550.4166"/><polygon fill="#000" stroke="#000" stroke-width="2" points="142.5 -550.413 139 -540.413 135.5 -550.413 142.5 -550.413"/></g><g id="node8" class="node"><title>pw</title><ellipse cx="329" cy="-306" fill="none" stroke="#000" rx="59.29" ry="18"/><text x="329" y="-302.3" fill="#000" font-family="Times,serif" font-size="14" text-anchor="middle">io.PipeWriter</text></g><g id="edge13" class="edge"><title>pw-&gt;pr</title><path fill="none" stroke="#000" stroke-width="2" d="M358.6263,-290.1993C378.2335,-279.7421 404.1444,-265.923 425.3655,-254.6051"/><polygon fill="#000" stroke="#000" stroke-width="2" points="427.266 -257.558 434.443 -249.764 423.972 -251.381 427.266 -257.558"/></g><g id="node10" class="node"><title>h1</title><ellipse cx="73" cy="-450" fill="none" stroke="#000" rx="54.691" ry="18"/><text x="73" y="-446.3" fill="#000" font-family="Times,serif" font-size="14" text-anchor="middle">sha256.New</text></g><g id="edge3" class="edge"><title>mw-&gt;h1</title><path fill="none" stroke="#000" d="M123.0232,-504.5708C114.8353,-495.6385 104.7218,-484.6056 95.736,-474.8029"/><polygon fill="#000" stroke="#000" points="98.167 -472.275 88.83 -467.269 93.007 -477.005 98.167 -472.275"/></g><g id="node11" class="node"><title>gzip</title><ellipse cx="198" cy="-450" fill="none" stroke="#000" rx="51.991" ry="18"/><text x="198" y="-446.3" fill="#000" font-family="Times,serif" font-size="14" text-anchor="middle">gzip.Writer</text></g><g id="edge5" class="edge"><title>mw-&gt;gzip</title><path fill="none" stroke="#000" stroke-width="2" d="M153.5843,-504.2022C160.7104,-495.506 169.4123,-484.8867 177.2191,-475.3598"/><polygon fill="#000" stroke="#000" stroke-width="2" points="180.156 -477.298 183.787 -467.345 174.742 -472.861 180.156 -477.298"/></g><g id="node16" class="node"><title>diffid</title><polygon fill="none" stroke="#000" points="104 -396 42 -396 42 -360 104 -360 104 -396"/><text x="73" y="-374.3" fill="#000" font-family="Times,serif" font-size="14" text-anchor="middle">DiffID()</text></g><g id="edge4" class="edge"><title>h1-&gt;diffid</title><path fill="none" stroke="#000" stroke-dasharray="5 2" d="M73,-431.8314C73,-424.131 73,-414.9743 73,-406.4166"/><polygon fill="#000" stroke="#000" points="76.5 -406.413 73 -396.413 69.5 -406.413 76.5 -406.413"/></g><g id="node12" class="node"><title>mw2</title><ellipse cx="198" cy="-378" fill="none" stroke="#000" rx="63.889" ry="18"/><text x="198" y="-374.3" fill="#000" font-family="Times,serif" font-size="14" text-anchor="middle">io.MultiWriter</text></g><g id="edge6" class="edge"><title>gzip-&gt;mw2</title><path fill="none" stroke="#000" stroke-width="2" d="M198,-431.8314C198,-424.131 198,-414.9743 198,-406.4166"/><polygon fill="#000" stroke="#000" stroke-width="2" points="201.5 -406.413 198 -396.413 194.5 -406.413 201.5 -406.413"/></g><g id="edge11" class="edge"><title>mw2-&gt;pw</title><path fill="none" stroke="#000" stroke-width="2" d="M227.399,-361.8418C246.2391,-351.4869 270.8742,-337.947 291.1679,-326.7932"/><polygon fill="#000" stroke="#000" stroke-width="2" points="293.072 -329.74 300.15 -321.856 289.701 -323.606 293.072 -329.74"/></g><g id="node13" class="node"><title>h2</title><ellipse cx="71" cy="-306" fill="none" stroke="#000" rx="54.691" ry="18"/><text x="71" y="-302.3" fill="#000" font-family="Times,serif" font-size="14" text-anchor="middle">sha256.New</text></g><g id="edge7" class="edge"><title>mw2-&gt;h2</title><path fill="none" stroke="#000" d="M169.4987,-361.8418C151.107,-351.415 127.019,-337.7588 107.2676,-326.5612"/><polygon fill="#000" stroke="#000" points="108.959 -323.497 98.534 -321.61 105.507 -329.586 108.959 -323.497"/></g><g id="node14" class="node"><title>count</title><ellipse cx="198" cy="-306" fill="none" stroke="#000" rx="53.891" ry="18"/><text x="198" y="-302.3" fill="#000" font-family="Times,serif" font-size="14" text-anchor="middle">countWriter</text></g><g id="edge9" class="edge"><title>mw2-&gt;count</title><path fill="none" stroke="#000" d="M198,-359.8314C198,-352.131 198,-342.9743 198,-334.4166"/><polygon fill="#000" stroke="#000" points="201.5 -334.413 198 -324.413 194.5 -334.413 201.5 -334.413"/></g><g id="node17" class="node"><title>digest</title><polygon fill="none" stroke="#000" points="101.5 -252 40.5 -252 40.5 -216 101.5 -216 101.5 -252"/><text x="71" y="-230.3" fill="#000" font-family="Times,serif" font-size="14" text-anchor="middle">Digest()</text></g><g id="edge8" class="edge"><title>h2-&gt;digest</title><path fill="none" stroke="#000" stroke-dasharray="5 2" d="M71,-287.8314C71,-280.131 71,-270.9743 71,-262.4166"/><polygon fill="#000" stroke="#000" points="74.5 -262.413 71 -252.413 67.5 -262.413 74.5 -262.413"/></g><g id="node15" class="node"><title>size</title><polygon fill="none" stroke="#000" points="225 -252 171 -252 171 -216 225 -216 225 -252"/><text x="198" y="-230.3" fill="#000" font-family="Times,serif" font-size="14" text-anchor="middle">Size()</text></g><g id="edge10" class="edge"><title>count-&gt;size</title><path fill="none" stroke="#000" stroke-dasharray="1 5" d="M198,-287.8314C198,-280.131 198,-270.9743 198,-262.4166"/><polygon fill="#000" stroke="#000" points="201.5 -262.413 198 -252.413 194.5 -262.413 201.5 -262.413"/></g></g></svg>