<svg xmlns="http://www.w3.org/2000/svg" xmlns:xlink="http://www.w3.org/1999/xlink" width="523pt" height="404" viewBox="0 0 523 303"><g id="graph0" class="graph" transform="scale(1 1) rotate(0) translate(4 299)"><title>%3</title><polygon fill="#fff" stroke="transparent" points="-4 4 -4 -299 519 -299 519 4 -4 4"/><g id="clust1" class="cluster"><title>cluster_tarball</title><polygon fill="none" stroke="#000" points="8 -8 8 -287 507 -287 507 -8 8 -8"/><text x="257.5" y="-271.8" fill="#000" font-family="Times,serif" font-size="14" text-anchor="middle">image.tar</text></g><g id="clust2" class="cluster"><title>cluster_manifest</title><polygon fill="none" stroke="#000" points="16 -16 16 -253 123 -253 123 -16 16 -16"/><text x="69.5" y="-237.8" fill="#000" font-family="Times,serif" font-size="14" text-anchor="middle">manifest.json</text></g><g id="clust3" class="cluster"><title>cluster_layer1</title><polygon fill="none" stroke="#000" points="397 -34 397 -133 499 -133 499 -34 397 -34"/><text x="448" y="-117.8" fill="#000" font-family="Times,serif" font-size="14" text-anchor="middle">layer.tar.gz</text></g><g id="clust4" class="cluster"><title>cluster_layer2</title><polygon fill="none" stroke="#000" points="397 -141 397 -240 499 -240 499 -141 397 -141"/><text x="448" y="-224.8" fill="#000" font-family="Times,serif" font-size="14" text-anchor="middle">layer.tar.gz</text></g><g id="node1" class="node"><title>mconfig</title><polygon fill="none" stroke="#000" points="96.5 -168 42.5 -168 42.5 -132 96.5 -132 96.5 -168"/><text x="69.5" y="-146.3" fill="#000" font-family="Times,serif" font-size="14" text-anchor="middle">Config</text></g><g id="node5" class="node"><title>config</title><polygon fill="none" stroke="#000" points="291 -154 243 -154 243 -118 297 -118 297 -148 291 -154"/><polyline fill="none" stroke="#000" points="291 -154 291 -148"/><polyline fill="none" stroke="#000" points="297 -148 291 -148"/><text x="270" y="-132.3" fill="#000" font-family="Times,serif" font-size="14" text-anchor="middle">config</text></g><g id="edge1" class="edge"><title>mconfig-&gt;config</title><path fill="none" stroke="#000" d="M96.5403,-148.1119C131.668,-145.6591 193.1644,-141.3651 232.7073,-138.604"/><polygon fill="#000" stroke="#000" points="233.016 -142.091 242.748 -137.903 232.528 -135.108 233.016 -142.091"/><text x="176.5" y="-147.8" fill="#000" font-family="Times,serif" font-size="14" text-anchor="middle">image id</text></g><g id="node2" class="node"><title>layers</title><polygon fill="none" stroke="#000" points="96.5 -222 42.5 -222 42.5 -186 96.5 -186 96.5 -222"/><text x="69.5" y="-200.3" fill="#000" font-family="Times,serif" font-size="14" text-anchor="middle">Layers</text></g><g id="node6" class="node"><title>l1</title><polygon fill="none" stroke="#000" points="479 -90 476 -94 455 -94 452 -90 417 -90 417 -54 479 -54 479 -90"/><text x="448" y="-68.3" fill="#000" font-family="Times,serif" font-size="14" text-anchor="middle">layer.tar</text></g><g id="edge2" class="edge"><title>layers-&gt;l1</title><path fill="none" stroke="#000" d="M96.5198,-204.19C165.9738,-204.4755 346.9131,-203.8632 370,-190 390.008,-177.9856 385.5908,-163.8126 394.84,-142.0701"/><polygon fill="#000" stroke="#000" points="398.031 -143.513 399.335 -132.999 391.759 -140.405 398.031 -143.513"/><text x="270" y="-205.8" fill="#000" font-family="Times,serif" font-size="14" text-anchor="middle">layer digest</text></g><g id="node7" class="node"><title>l2</title><polygon fill="none" stroke="#000" points="479 -197 476 -201 455 -201 452 -197 417 -197 417 -161 479 -161 479 -197"/><text x="448" y="-175.3" fill="#000" font-family="Times,serif" font-size="14" text-anchor="middle">layer.tar</text></g><g id="edge3" class="edge"><title>layers-&gt;l2</title><path fill="none" stroke="#000" d="M96.7682,-219.0493C117.8784,-229.293 148.1958,-241 176.5,-241 176.5,-241 176.5,-241 354.5,-241 367.5727,-241 373.2434,-242.298 387.8589,-235.9183"/><polygon fill="#000" stroke="#000" points="389.503 -239.011 397.003 -231.527 386.473 -232.701 389.503 -239.011"/><text x="270" y="-244.8" fill="#000" font-family="Times,serif" font-size="14" text-anchor="middle">layer digest</text></g><g id="node3" class="node"><title>sources</title><polygon fill="none" stroke="#000" points="115 -114 24 -114 24 -78 115 -78 115 -114"/><text x="69.5" y="-92.3" fill="#000" font-family="Times,serif" font-size="14" text-anchor="middle">LayerSources</text></g><g id="edge6" class="edge"><title>sources-&gt;l1</title><path fill="none" stroke="#000" d="M106.626,-77.9421C112.1689,-75.0511 117.7734,-72.0159 123,-69 147.6108,-54.799 148.086,-34 176.5,-34 176.5,-34 176.5,-34 354.5,-34 369.9935,-34 374.3272,-34.0242 389,-39 396.5806,-41.5707 404.3097,-45.114 411.5701,-48.9291"/><polygon fill="#000" stroke="#000" points="410.025 -52.074 420.47 -53.854 413.415 -45.95 410.025 -52.074"/><text x="270" y="-37.8" fill="#000" font-family="Times,serif" font-size="14" text-anchor="middle">diffid</text></g><g id="edge7" class="edge"><title>sources-&gt;l2</title><path fill="none" stroke="#000" d="M115.0969,-83.9218C174.9057,-70.173 282.5191,-52.6874 370,-78 379.5941,-80.7761 383.4596,-81.69 389,-90 400.7544,-107.6302 386.3753,-118.6669 397,-137 400.6773,-143.3452 405.699,-149.1408 411.1641,-154.2655"/><polygon fill="#000" stroke="#000" points="408.94 -156.969 418.807 -160.826 413.499 -151.657 408.94 -156.969"/><text x="270" y="-69.8" fill="#000" font-family="Times,serif" font-size="14" text-anchor="middle">diffid</text></g><g id="node4" class="node"><title>tags</title><polygon fill="none" stroke="#000" points="105 -60 34 -60 34 -24 105 -24 105 -60"/><text x="69.5" y="-38.3" fill="#000" font-family="Times,serif" font-size="14" text-anchor="middle">RepoTags</text></g><g id="edge4" class="edge"><title>config-&gt;l1</title><path fill="none" stroke="#000" d="M297.0344,-126.2798C326.3338,-115.7451 373.4204,-98.8151 407.2182,-86.6631"/><polygon fill="#000" stroke="#000" points="408.583 -89.892 416.809 -83.215 406.214 -83.305 408.583 -89.892"/><text x="354.5" y="-113.8" fill="#000" font-family="Times,serif" font-size="14" text-anchor="middle">diffid</text></g><g id="edge5" class="edge"><title>config-&gt;l2</title><path fill="none" stroke="#000" d="M297.0344,-142.5308C326.2081,-149.5784 373.0165,-160.886 406.7823,-169.0429"/><polygon fill="#000" stroke="#000" points="406.266 -172.519 416.809 -171.465 407.91 -165.715 406.266 -172.519"/><text x="354.5" y="-163.8" fill="#000" font-family="Times,serif" font-size="14" text-anchor="middle">diffid</text></g></g></svg>