<svg xmlns="http://www.w3.org/2000/svg" xmlns:xlink="http://www.w3.org/1999/xlink" width="505pt" height="1176" viewBox="0 0 504.57 881.79"><g id="graph0" class="graph" transform="scale(1 1) rotate(0) translate(4 877.7939)"><title>G</title><polygon fill="#fff" stroke="transparent" points="-4 4 -4 -877.794 500.565 -877.794 500.565 4 -4 4"/><g id="node1" class="node"><title>fs</title><g id="a_node1"><a xlink:href="https://github.com/opencontainers/image-spec/blob/master/layer.md" xlink:title="filesystem\nchangeset"><polygon fill="none" stroke="#000" points="291.95 -873.794 288.95 -877.794 267.95 -877.794 264.95 -873.794 218.95 -873.794 218.95 -835.794 291.95 -835.794 291.95 -873.794"/><text x="255.45" y="-858.594" fill="#000" font-family="Times,serif" font-size="14" text-anchor="middle">filesystem</text><text x="255.45" y="-843.594" fill="#000" font-family="Times,serif" font-size="14" text-anchor="middle">changeset</text></a></g></g><g id="node3" class="node"><title>tar</title><polygon fill="none" stroke="#000" points="282.45 -799.794 228.45 -799.794 228.45 -763.794 282.45 -763.794 282.45 -799.794"/><text x="255.45" y="-778.094" fill="#000" font-family="Times,serif" font-size="14" text-anchor="middle">tar</text></g><g id="edge2" class="edge"><title>fs-&gt;tar</title><path fill="none" stroke="#000" d="M255.4498,-835.614C255.4498,-827.8913 255.4498,-818.8221 255.4498,-810.3524"/><polygon fill="#000" stroke="#000" points="258.95 -810.091 255.45 -800.091 251.95 -810.091 258.95 -810.091"/></g><g id="node2" class="node"><title>configuration</title><g id="a_node2"><a xlink:href="https://github.com/opencontainers/image-spec/blob/master/config.md#properties" xlink:title="image\nconfig"><polygon fill="none" stroke="#000" points="299.233 -552.767 278.341 -583.821 236.558 -583.821 215.667 -552.767 236.558 -521.713 278.341 -521.713 299.233 -552.767"/><text x="257.45" y="-556.567" fill="#000" font-family="Times,serif" font-size="14" text-anchor="middle">image</text><text x="257.45" y="-541.567" fill="#000" font-family="Times,serif" font-size="14" text-anchor="middle">config</text></a></g></g><g id="node16" class="node"><title>config</title><g id="a_node16"><a xlink:href="https://github.com/opencontainers/image-spec/blob/master/config.md" xlink:title="config file"><polygon fill="none" stroke="#000" points="197.95 -485.74 130.95 -485.74 130.95 -449.74 203.95 -449.74 203.95 -479.74 197.95 -485.74"/><polyline fill="none" stroke="#000" points="197.95 -485.74 197.95 -479.74"/><polyline fill="none" stroke="#000" points="203.95 -479.74 197.95 -479.74"/><text x="167.45" y="-464.04" fill="#000" font-family="Times,serif" font-size="14" text-anchor="middle">config file</text></a></g></g><g id="edge1" class="edge"><title>configuration-&gt;config</title><path fill="none" stroke="#000" d="M231.9002,-528.6291C220.1342,-517.5133 206.1713,-504.322 194.2553,-493.0644"/><polygon fill="#000" stroke="#000" points="196.437 -490.31 186.764 -485.987 191.63 -495.399 196.437 -490.31"/></g><g id="node5" class="node"><title>tee</title><polygon fill="none" stroke="#000" points="282.45 -727.794 228.45 -727.794 228.45 -691.794 282.45 -691.794 282.45 -727.794"/><text x="255.45" y="-706.094" fill="#000" font-family="Times,serif" font-size="14" text-anchor="middle">tee</text></g><g id="edge3" class="edge"><title>tar-&gt;tee</title><path fill="none" stroke="#000" d="M255.4498,-763.6252C255.4498,-755.9248 255.4498,-746.7682 255.4498,-738.2105"/><polygon fill="#000" stroke="#000" points="258.95 -738.207 255.45 -728.207 251.95 -738.207 258.95 -738.207"/></g><g id="node4" class="node"><title>gzip</title><polygon fill="none" stroke="#000" points="347.45 -655.794 293.45 -655.794 293.45 -619.794 347.45 -619.794 347.45 -655.794"/><text x="320.45" y="-634.094" fill="#000" font-family="Times,serif" font-size="14" text-anchor="middle">gzip</text></g><g id="node17" class="node"><title>layer</title><g id="a_node17"><a xlink:href="https://github.com/opencontainers/image-spec/blob/master/layer.md" xlink:title="layer"><polygon fill="none" stroke="#000" points="375.45 -570.767 327.45 -570.767 327.45 -534.767 381.45 -534.767 381.45 -564.767 375.45 -570.767"/><polyline fill="none" stroke="#000" points="375.45 -570.767 375.45 -564.767"/><polyline fill="none" stroke="#000" points="381.45 -564.767 375.45 -564.767"/><text x="354.45" y="-549.067" fill="#000" font-family="Times,serif" font-size="14" text-anchor="middle">layer</text></a></g></g><g id="edge7" class="edge"><title>gzip-&gt;layer</title><path fill="none" stroke="#000" d="M327.6604,-619.7618C332.2583,-608.2635 338.3055,-593.1407 343.4908,-580.1733"/><polygon fill="#000" stroke="#000" points="346.787 -581.358 347.25 -570.773 340.287 -578.759 346.787 -581.358"/></g><g id="edge6" class="edge"><title>tee-&gt;gzip</title><path fill="none" stroke="#000" d="M271.8521,-691.6252C279.4914,-683.1632 288.7182,-672.9428 297.0705,-663.6909"/><polygon fill="#000" stroke="#000" points="299.724 -665.975 303.827 -656.207 294.528 -661.284 299.724 -665.975"/></g><g id="node8" class="node"><title>sha256sum</title><polygon fill="none" stroke="#000" points="252.45 -655.794 174.45 -655.794 174.45 -619.794 252.45 -619.794 252.45 -655.794"/><text x="213.45" y="-634.094" fill="#000" font-family="Times,serif" font-size="14" text-anchor="middle">sha256sum</text></g><g id="edge4" class="edge"><title>tee-&gt;sha256sum</title><path fill="none" stroke="#000" d="M244.8515,-691.6252C240.1621,-683.5863 234.547,-673.9604 229.37,-665.0856"/><polygon fill="#000" stroke="#000" points="232.253 -663.081 224.191 -656.207 226.206 -666.609 232.253 -663.081"/></g><g id="node6" class="node"><title>tee2</title><polygon fill="none" stroke="#000" points="407.45 -413.74 353.45 -413.74 353.45 -377.74 407.45 -377.74 407.45 -413.74"/><text x="380.45" y="-392.04" fill="#000" font-family="Times,serif" font-size="14" text-anchor="middle">tee</text></g><g id="node9" class="node"><title>sha256sum2</title><polygon fill="none" stroke="#000" points="370.45 -341.74 292.45 -341.74 292.45 -305.74 370.45 -305.74 370.45 -341.74"/><text x="331.45" y="-320.04" fill="#000" font-family="Times,serif" font-size="14" text-anchor="middle">sha256sum</text></g><g id="edge9" class="edge"><title>tee2-&gt;sha256sum2</title><path fill="none" stroke="#000" d="M368.0851,-377.5715C362.499,-369.3634 355.7869,-359.5007 349.6426,-350.4724"/><polygon fill="#000" stroke="#000" points="352.501 -348.451 343.981 -342.153 346.714 -352.39 352.501 -348.451"/></g><g id="node11" class="node"><title>curl</title><polygon fill="none" stroke="#000" points="476.45 -180 422.45 -180 422.45 -144 476.45 -144 476.45 -180"/><text x="449.45" y="-158.3" fill="#000" font-family="Times,serif" font-size="14" text-anchor="middle">curl</text></g><g id="edge14" class="edge"><title>tee2-&gt;curl</title><path fill="none" stroke="#000" d="M407.4647,-382.2896C424.2217,-372.836 445.1987,-358.8424 459.4498,-341.7401 481.8672,-314.8378 484.1804,-303.9954 491.4498,-269.7401 496.408,-246.3759 499.2012,-238.5917 491.4498,-216 487.9808,-205.8894 481.7599,-196.2137 475.1508,-187.9166"/><polygon fill="#000" stroke="#000" points="477.651 -185.454 468.5 -180.114 472.323 -189.995 477.651 -185.454"/></g><g id="node14" class="node"><title>wc</title><polygon fill="none" stroke="#000" points="450.45 -341.74 396.45 -341.74 396.45 -305.74 450.45 -305.74 450.45 -341.74"/><text x="423.45" y="-320.04" fill="#000" font-family="Times,serif" font-size="14" text-anchor="middle">wc -c</text></g><g id="edge11" class="edge"><title>tee2-&gt;wc</title><path fill="none" stroke="#000" d="M391.3005,-377.5715C396.1521,-369.448 401.9715,-359.7038 407.3178,-350.7519"/><polygon fill="#000" stroke="#000" points="410.33 -352.533 412.453 -342.153 404.321 -348.944 410.33 -352.533"/></g><g id="node7" class="node"><title>tee3</title><polygon fill="none" stroke="#000" points="175.45 -413.74 121.45 -413.74 121.45 -377.74 175.45 -377.74 175.45 -413.74"/><text x="148.45" y="-392.04" fill="#000" font-family="Times,serif" font-size="14" text-anchor="middle">tee</text></g><g id="node10" class="node"><title>sha256sum3</title><polygon fill="none" stroke="#000" points="220.45 -341.74 142.45 -341.74 142.45 -305.74 220.45 -305.74 220.45 -341.74"/><text x="181.45" y="-320.04" fill="#000" font-family="Times,serif" font-size="14" text-anchor="middle">sha256sum</text></g><g id="edge21" class="edge"><title>tee3-&gt;sha256sum3</title><path fill="none" stroke="#000" d="M156.7771,-377.5715C160.4228,-369.6172 164.7807,-360.1091 168.8125,-351.3124"/><polygon fill="#000" stroke="#000" points="172.025 -352.702 173.01 -342.153 165.662 -349.786 172.025 -352.702"/></g><g id="node12" class="node"><title>curl2</title><polygon fill="none" stroke="#000" points="140.45 -108 86.45 -108 86.45 -72 140.45 -72 140.45 -108"/><text x="113.45" y="-86.3" fill="#000" font-family="Times,serif" font-size="14" text-anchor="middle">curl</text></g><g id="edge18" class="edge"><title>tee3-&gt;curl2</title><path fill="none" stroke="#000" d="M121.176,-387.9084C97.0472,-379.7786 62.2297,-364.9521 39.4498,-341.7401 14.6626,-316.4827 13.193,-304.2711 5.4498,-269.7401 .2238,-246.4344 -2.8368,-238.4009 5.4498,-216 20.6686,-174.8598 55.9849,-138.0878 82.1108,-115.0395"/><polygon fill="#000" stroke="#000" points="84.599 -117.516 89.891 -108.338 80.03 -112.212 84.599 -117.516"/></g><g id="node15" class="node"><title>wc2</title><polygon fill="none" stroke="#000" points="102.45 -341.74 48.45 -341.74 48.45 -305.74 102.45 -305.74 102.45 -341.74"/><text x="75.45" y="-320.04" fill="#000" font-family="Times,serif" font-size="14" text-anchor="middle">wc -c</text></g><g id="edge20" class="edge"><title>tee3-&gt;wc2</title><path fill="none" stroke="#000" d="M130.0288,-377.5715C121.2969,-368.9591 110.7181,-358.5252 101.2075,-349.1449"/><polygon fill="#000" stroke="#000" points="103.442 -346.433 93.865 -341.903 98.527 -351.417 103.442 -346.433"/></g><g id="node24" class="node"><title>diffid</title><g id="a_node24"><a xlink:href="https://github.com/opencontainers/image-spec/blob/master/config.md#layer-diffid" xlink:title="diffid"><ellipse cx="167.45" cy="-552.767" fill="none" stroke="#000" rx="30.595" ry="18"/><text x="167.45" y="-549.067" fill="#000" font-family="Times,serif" font-size="14" text-anchor="middle">diffid</text></a></g></g><g id="edge5" class="edge"><title>sha256sum-&gt;diffid</title><path fill="none" stroke="#000" stroke-dasharray="5 2" d="M203.6944,-619.7618C197.3279,-607.9938 188.9074,-592.4294 181.7852,-579.2647"/><polygon fill="#000" stroke="#000" points="184.713 -577.321 176.877 -570.192 178.557 -580.652 184.713 -577.321"/></g><g id="node23" class="node"><title>layer_digest</title><ellipse cx="324.45" cy="-242.87" fill="none" stroke="#000" rx="51.991" ry="18"/><text x="324.45" y="-239.17" fill="#000" font-family="Times,serif" font-size="14" text-anchor="middle">layer digest</text></g><g id="edge10" class="edge"><title>sha256sum2-&gt;layer_digest</title><path fill="none" stroke="#000" stroke-dasharray="5 2" d="M329.8614,-305.3894C328.9782,-295.1851 327.8606,-282.274 326.8707,-270.8377"/><polygon fill="#000" stroke="#000" points="330.357 -270.53 326.008 -260.87 323.383 -271.134 330.357 -270.53"/></g><g id="node22" class="node"><title>config_digest</title><g id="a_node22"><a xlink:href="https://github.com/opencontainers/image-spec/blob/master/config.md#imageid" xlink:title="config digest\n(image id)"><ellipse cx="192.45" cy="-242.87" fill="none" stroke="#000" rx="61.537" ry="26.741"/><text x="192.45" y="-246.67" fill="#000" font-family="Times,serif" font-size="14" text-anchor="middle">config digest</text><text x="192.45" y="-231.67" fill="#000" font-family="Times,serif" font-size="14" text-anchor="middle">(image id)</text></a></g></g><g id="edge23" class="edge"><title>sha256sum3-&gt;config_digest</title><path fill="none" stroke="#000" stroke-dasharray="5 2" d="M183.9459,-305.3894C184.9756,-297.8196 186.2078,-288.7601 187.4105,-279.9182"/><polygon fill="#000" stroke="#000" points="190.915 -280.121 188.795 -269.741 183.979 -279.178 190.915 -280.121"/></g><g id="node19" class="node"><title>registry</title><g id="a_node19"><a xlink:href="https://github.com/opencontainers/distribution-spec/blob/master/spec.md" xlink:title="registry"><path fill="none" stroke="#000" d="M281.4498,-32.7273C281.4498,-34.5331 268.4516,-36 252.4498,-36 236.4481,-36 223.4498,-34.5331 223.4498,-32.7273 223.4498,-32.7273 223.4498,-3.2727 223.4498,-3.2727 223.4498,-1.4669 236.4481,0 252.4498,0 268.4516,0 281.4498,-1.4669 281.4498,-3.2727 281.4498,-3.2727 281.4498,-32.7273 281.4498,-32.7273"/><path fill="none" stroke="#000" d="M281.4498,-32.7273C281.4498,-30.9214 268.4516,-29.4545 252.4498,-29.4545 236.4481,-29.4545 223.4498,-30.9214 223.4498,-32.7273"/><text x="252.45" y="-14.3" fill="#000" font-family="Times,serif" font-size="14" text-anchor="middle">registry</text></a></g></g><g id="edge15" class="edge"><title>curl-&gt;registry</title><path fill="none" stroke="#000" d="M424.4996,-143.7623C388.8852,-117.7294 323.4665,-69.9107 284.3667,-41.3301"/><polygon fill="#000" stroke="#000" points="286.11 -38.269 275.971 -35.193 281.979 -43.92 286.11 -38.269"/></g><g id="edge19" class="edge"><title>curl2-&gt;registry</title><path fill="none" stroke="#000" d="M140.5804,-75.9468C161.5049,-65.1082 190.7151,-49.9777 214.0402,-37.8956"/><polygon fill="#000" stroke="#000" points="215.715 -40.97 222.985 -33.263 212.495 -34.754 215.715 -40.97"/></g><g id="node13" class="node"><title>curl3</title><polygon fill="none" stroke="#000" points="279.45 -108 225.45 -108 225.45 -72 279.45 -72 279.45 -108"/><text x="252.45" y="-86.3" fill="#000" font-family="Times,serif" font-size="14" text-anchor="middle">curl</text></g><g id="edge28" class="edge"><title>curl3-&gt;registry</title><path fill="none" stroke="#000" d="M252.4498,-71.8314C252.4498,-64.131 252.4498,-54.9743 252.4498,-46.4166"/><polygon fill="#000" stroke="#000" points="255.95 -46.413 252.45 -36.413 248.95 -46.413 255.95 -46.413"/></g><g id="node21" class="node"><title>layer_size</title><ellipse cx="438.45" cy="-242.87" fill="none" stroke="#000" rx="44.393" ry="18"/><text x="438.45" y="-239.17" fill="#000" font-family="Times,serif" font-size="14" text-anchor="middle">layer size</text></g><g id="edge12" class="edge"><title>wc-&gt;layer_size</title><path fill="none" stroke="#000" stroke-dasharray="1 5" d="M426.8536,-305.3894C428.7463,-295.1851 431.1411,-282.274 433.2623,-270.8377"/><polygon fill="#000" stroke="#000" points="436.729 -271.34 435.111 -260.87 429.846 -270.063 436.729 -271.34"/></g><g id="node20" class="node"><title>config_size</title><ellipse cx="63.45" cy="-242.87" fill="none" stroke="#000" rx="49.291" ry="18"/><text x="63.45" y="-239.17" fill="#000" font-family="Times,serif" font-size="14" text-anchor="middle">config size</text></g><g id="edge22" class="edge"><title>wc2-&gt;config_size</title><path fill="none" stroke="#000" stroke-dasharray="1 5" d="M72.7268,-305.3894C71.2127,-295.1851 69.2968,-282.274 67.5998,-270.8377"/><polygon fill="#000" stroke="#000" points="71.051 -270.248 66.121 -260.87 64.126 -271.275 71.051 -270.248"/></g><g id="edge17" class="edge"><title>config-&gt;tee3</title><path fill="none" stroke="#000" d="M162.6553,-449.5715C160.6009,-441.7865 158.1538,-432.513 155.8743,-423.8748"/><polygon fill="#000" stroke="#000" points="159.245 -422.929 153.309 -414.153 152.476 -424.716 159.245 -422.929"/></g><g id="edge8" class="edge"><title>layer-&gt;tee2</title><path fill="none" stroke="#000" d="M357.4324,-534.754C361.9143,-507.6851 370.4272,-456.272 375.7497,-424.1265"/><polygon fill="#000" stroke="#000" points="379.241 -424.464 377.422 -414.027 372.335 -423.321 379.241 -424.464"/></g><g id="node18" class="node"><title>manifest</title><g id="a_node18"><a xlink:href="https://github.com/opencontainers/image-spec/blob/master/manifest.md" xlink:title="manifest"><polygon fill="none" stroke="#000" points="278.45 -180 220.45 -180 220.45 -144 284.45 -144 284.45 -174 278.45 -180"/><polyline fill="none" stroke="#000" points="278.45 -180 278.45 -174"/><polyline fill="none" stroke="#000" points="284.45 -174 278.45 -174"/><text x="252.45" y="-158.3" fill="#000" font-family="Times,serif" font-size="14" text-anchor="middle">manifest</text></a></g></g><g id="edge27" class="edge"><title>manifest-&gt;curl3</title><path fill="none" stroke="#000" d="M252.4498,-143.8314C252.4498,-136.131 252.4498,-126.9743 252.4498,-118.4166"/><polygon fill="#000" stroke="#000" points="255.95 -118.413 252.45 -108.413 248.95 -118.413 255.95 -118.413"/></g><g id="edge25" class="edge"><title>config_size-&gt;manifest</title><path fill="none" stroke="#000" stroke-dasharray="1 5" d="M93.7415,-228.5389C102.634,-224.4127 112.4011,-219.9589 121.4498,-216 151.126,-203.0165 184.9324,-189.1026 210.7685,-178.6506"/><polygon fill="#000" stroke="#000" points="212.291 -181.811 220.255 -174.823 209.672 -175.319 212.291 -181.811"/></g><g id="edge13" class="edge"><title>layer_size-&gt;manifest</title><path fill="none" stroke="#000" stroke-dasharray="1 5" d="M411.4267,-228.6221C403.1596,-224.412 393.9931,-219.8918 385.4498,-216 355.1525,-202.1984 320.2569,-188.0959 293.8131,-177.765"/><polygon fill="#000" stroke="#000" points="295.066 -174.497 284.477 -174.137 292.53 -181.022 295.066 -174.497"/></g><g id="edge24" class="edge"><title>config_digest-&gt;manifest</title><path fill="none" stroke="#000" stroke-dasharray="5 2" d="M211.4342,-217.2823C218.2685,-208.0708 225.9885,-197.6656 232.8723,-188.3872"/><polygon fill="#000" stroke="#000" points="235.762 -190.366 238.91 -180.25 230.141 -186.195 235.762 -190.366"/></g><g id="edge26" class="edge"><title>layer_digest-&gt;manifest</title><path fill="none" stroke="#000" stroke-dasharray="5 2" d="M308.8269,-225.3225C299.0559,-214.3477 286.2986,-200.0188 275.3913,-187.7678"/><polygon fill="#000" stroke="#000" points="277.805 -185.215 268.541 -180.073 272.576 -189.869 277.805 -185.215"/></g><g id="edge16" class="edge"><title>diffid-&gt;config</title><path fill="none" stroke="#000" stroke-dasharray="5 2" d="M167.4498,-534.735C167.4498,-523.462 167.4498,-508.7054 167.4498,-495.9117"/><polygon fill="#000" stroke="#000" points="170.95 -495.746 167.45 -485.746 163.95 -495.746 170.95 -495.746"/></g></g></svg>